<svg width="138" height="138" viewBox="0 0 138 138" fill="none" xmlns="http://www.w3.org/2000/svg">
<path fill-rule="evenodd" clip-rule="evenodd" d="M69 0C30.8932 0 0 30.8932 0 69C0 107.107 30.8932 138 69 138C107.107 138 138 107.107 138 69C138 30.8932 107.107 0 69 0ZM98.9084 57.3327C99.4591 56.7032 99.8784 55.9699 100.142 55.176C100.405 54.382 100.506 53.5435 100.441 52.7096C100.375 51.8758 100.143 51.0635 99.7588 50.3206C99.3745 49.5777 98.8455 48.9192 98.203 48.3837C97.5604 47.8482 96.8173 47.4467 96.0173 47.2027C95.2172 46.9587 94.3765 46.8771 93.5445 46.9628C92.7124 47.0485 91.906 47.2998 91.1725 47.7018C90.439 48.1038 89.7933 48.6484 89.2735 49.3036L62.3007 81.6646L48.3439 67.7015C47.1609 66.5589 45.5764 65.9267 43.9317 65.941C42.287 65.9552 40.7137 66.6149 39.5507 67.778C38.3877 68.941 37.728 70.5143 37.7137 72.1589C37.6994 73.8036 38.3316 75.3881 39.4743 76.5712L58.2925 95.3894C58.9088 96.0053 59.6467 96.4861 60.4592 96.8011C61.2716 97.1161 62.1408 97.2583 63.0112 97.2188C63.8817 97.1793 64.7344 96.9588 65.5149 96.5715C66.2955 96.1841 66.9868 95.6384 67.5447 94.9691L98.9084 57.3327Z" fill="#1DB954"/>
</svg>
