<svg width="24" height="16" viewBox="0 0 24 16" fill="none" xmlns="http://www.w3.org/2000/svg">
<path d="M21.5998 0H2.3998C1.97546 0 1.56849 0.168571 1.26843 0.468629C0.968376 0.768687 0.799805 1.17565 0.799805 1.6V14.4C0.799805 14.8243 0.968376 15.2313 1.26843 15.5314C1.56849 15.8314 1.97546 16 2.3998 16H21.5998C22.0242 16 22.4311 15.8314 22.7312 15.5314C23.0312 15.2313 23.1998 14.8243 23.1998 14.4V1.6C23.1998 1.17565 23.0312 0.768687 22.7312 0.468629C22.4311 0.168571 22.0242 0 21.5998 0ZM19.8398 1.6L11.9998 7.024L4.1598 1.6H19.8398ZM2.3998 14.4V2.328L11.5438 8.656C11.6777 8.7489 11.8368 8.79869 11.9998 8.79869C12.1628 8.79869 12.3219 8.7489 12.4558 8.656L21.5998 2.328V14.4H2.3998Z" fill="black"/>
</svg>
