<svg width="51" height="27" viewBox="0 0 51 27" fill="none" xmlns="http://www.w3.org/2000/svg">
<path d="M5.29492 26H0.865234V0.40625H5.29492V26ZM28.7266 3.99219H20.7461V26H16.334V3.99219H8.42383V0.40625H28.7266V3.99219ZM50.8223 0.40625V17.5098C50.8223 20.2285 49.9492 22.3848 48.2031 23.9785C46.4688 25.5605 44.1543 26.3516 41.2598 26.3516C38.3301 26.3516 36.0039 25.5723 34.2812 24.0137C32.5586 22.4434 31.6973 20.2695 31.6973 17.4922V0.40625H36.127V17.5273C36.127 19.2383 36.5605 20.5449 37.4277 21.4473C38.2949 22.3496 39.5723 22.8008 41.2598 22.8008C44.6816 22.8008 46.3926 20.9961 46.3926 17.3867V0.40625H50.8223Z" fill="#1DB954"/>
</svg>
