<svg width="178" height="56" viewBox="0 0 178 56" fill="none" xmlns="http://www.w3.org/2000/svg">
<g filter="url(#filter0_d)">
<path d="M8 28C8 16.9543 16.9543 8 28 8H150C161.046 8 170 16.9543 170 28V28C170 39.0457 161.046 48 150 48H28C16.9543 48 8 39.0457 8 28V28Z" fill="#334C60"/>
<path d="M49.9453 29.2109C49.8568 30.4349 49.4036 31.3984 48.5859 32.1016C47.7734 32.8047 46.7005 33.1562 45.3672 33.1562C43.9089 33.1562 42.7604 32.6667 41.9219 31.6875C41.0885 30.7031 40.6719 29.3542 40.6719 27.6406V26.9453C40.6719 25.8516 40.8646 24.888 41.25 24.0547C41.6354 23.2214 42.1849 22.5833 42.8984 22.1406C43.6172 21.6927 44.4505 21.4688 45.3984 21.4688C46.7109 21.4688 47.7682 21.8203 48.5703 22.5234C49.3724 23.2266 49.8359 24.2135 49.9609 25.4844H47.6172C47.5599 24.75 47.3542 24.2188 47 23.8906C46.651 23.5573 46.1172 23.3906 45.3984 23.3906C44.6172 23.3906 44.0312 23.6719 43.6406 24.2344C43.2552 24.7917 43.0573 25.6589 43.0469 26.8359V27.6953C43.0469 28.9245 43.2318 29.8229 43.6016 30.3906C43.9766 30.9583 44.5651 31.2422 45.3672 31.2422C46.0911 31.2422 46.6302 31.0781 46.9844 30.75C47.3438 30.4167 47.5495 29.9036 47.6016 29.2109H49.9453ZM56.0859 26.6641C55.7786 26.6224 55.5078 26.6016 55.2734 26.6016C54.4193 26.6016 53.8594 26.8906 53.5938 27.4688V33H51.3359V24.5469H53.4688L53.5312 25.5547C53.9844 24.7786 54.612 24.3906 55.4141 24.3906C55.6641 24.3906 55.8984 24.4245 56.1172 24.4922L56.0859 26.6641ZM60.9141 33.1562C59.6745 33.1562 58.6641 32.776 57.8828 32.0156C57.1068 31.2552 56.7188 30.2422 56.7188 28.9766V28.7578C56.7188 27.9089 56.8828 27.151 57.2109 26.4844C57.5391 25.8125 58.0026 25.2969 58.6016 24.9375C59.2057 24.5729 59.8932 24.3906 60.6641 24.3906C61.8203 24.3906 62.7292 24.7552 63.3906 25.4844C64.0573 26.2135 64.3906 27.2474 64.3906 28.5859V29.5078H59.0078C59.0807 30.0599 59.2995 30.5026 59.6641 30.8359C60.0339 31.1693 60.5 31.3359 61.0625 31.3359C61.9323 31.3359 62.612 31.0208 63.1016 30.3906L64.2109 31.6328C63.8724 32.112 63.4141 32.487 62.8359 32.7578C62.2578 33.0234 61.6172 33.1562 60.9141 33.1562ZM60.6562 26.2188C60.2083 26.2188 59.8438 26.3698 59.5625 26.6719C59.2865 26.974 59.1094 27.4062 59.0312 27.9688H62.1719V27.7891C62.1615 27.2891 62.026 26.9036 61.7656 26.6328C61.5052 26.3568 61.1354 26.2188 60.6562 26.2188ZM70.5781 33C70.474 32.7969 70.3984 32.5443 70.3516 32.2422C69.8047 32.8516 69.0938 33.1562 68.2188 33.1562C67.3906 33.1562 66.7031 32.9167 66.1562 32.4375C65.6146 31.9583 65.3438 31.3542 65.3438 30.625C65.3438 29.7292 65.6745 29.0417 66.3359 28.5625C67.0026 28.0833 67.9635 27.8411 69.2188 27.8359H70.2578V27.3516C70.2578 26.9609 70.1562 26.6484 69.9531 26.4141C69.7552 26.1797 69.4401 26.0625 69.0078 26.0625C68.6276 26.0625 68.3281 26.1536 68.1094 26.3359C67.8958 26.5182 67.7891 26.7682 67.7891 27.0859H65.5312C65.5312 26.5964 65.6823 26.1432 65.9844 25.7266C66.2865 25.3099 66.7135 24.9844 67.2656 24.75C67.8177 24.5104 68.4375 24.3906 69.125 24.3906C70.1667 24.3906 70.9922 24.6536 71.6016 25.1797C72.2161 25.7005 72.5234 26.4349 72.5234 27.3828V31.0469C72.5286 31.849 72.6406 32.4557 72.8594 32.8672V33H70.5781ZM68.7109 31.4297C69.0443 31.4297 69.3516 31.3568 69.6328 31.2109C69.9141 31.0599 70.1224 30.8594 70.2578 30.6094V29.1562H69.4141C68.2839 29.1562 67.6823 29.5469 67.6094 30.3281L67.6016 30.4609C67.6016 30.7422 67.7005 30.974 67.8984 31.1562C68.0964 31.3385 68.3672 31.4297 68.7109 31.4297ZM76.9609 22.4688V24.5469H78.4062V26.2031H76.9609V30.4219C76.9609 30.7344 77.0208 30.9583 77.1406 31.0938C77.2604 31.2292 77.4896 31.2969 77.8281 31.2969C78.0781 31.2969 78.2995 31.2786 78.4922 31.2422V32.9531C78.0495 33.0885 77.5938 33.1562 77.125 33.1562C75.5417 33.1562 74.7344 32.3568 74.7031 30.7578V26.2031H73.4688V24.5469H74.7031V22.4688H76.9609ZM83.5547 33.1562C82.3151 33.1562 81.3047 32.776 80.5234 32.0156C79.7474 31.2552 79.3594 30.2422 79.3594 28.9766V28.7578C79.3594 27.9089 79.5234 27.151 79.8516 26.4844C80.1797 25.8125 80.6432 25.2969 81.2422 24.9375C81.8464 24.5729 82.5339 24.3906 83.3047 24.3906C84.4609 24.3906 85.3698 24.7552 86.0312 25.4844C86.6979 26.2135 87.0312 27.2474 87.0312 28.5859V29.5078H81.6484C81.7214 30.0599 81.9401 30.5026 82.3047 30.8359C82.6745 31.1693 83.1406 31.3359 83.7031 31.3359C84.5729 31.3359 85.2526 31.0208 85.7422 30.3906L86.8516 31.6328C86.513 32.112 86.0547 32.487 85.4766 32.7578C84.8984 33.0234 84.2578 33.1562 83.5547 33.1562ZM83.2969 26.2188C82.849 26.2188 82.4844 26.3698 82.2031 26.6719C81.9271 26.974 81.75 27.4062 81.6719 27.9688H84.8125V27.7891C84.8021 27.2891 84.6667 26.9036 84.4062 26.6328C84.1458 26.3568 83.776 26.2188 83.2969 26.2188ZM97.2031 33C97.099 32.7969 97.0234 32.5443 96.9766 32.2422C96.4297 32.8516 95.7188 33.1562 94.8438 33.1562C94.0156 33.1562 93.3281 32.9167 92.7812 32.4375C92.2396 31.9583 91.9688 31.3542 91.9688 30.625C91.9688 29.7292 92.2995 29.0417 92.9609 28.5625C93.6276 28.0833 94.5885 27.8411 95.8438 27.8359H96.8828V27.3516C96.8828 26.9609 96.7812 26.6484 96.5781 26.4141C96.3802 26.1797 96.0651 26.0625 95.6328 26.0625C95.2526 26.0625 94.9531 26.1536 94.7344 26.3359C94.5208 26.5182 94.4141 26.7682 94.4141 27.0859H92.1562C92.1562 26.5964 92.3073 26.1432 92.6094 25.7266C92.9115 25.3099 93.3385 24.9844 93.8906 24.75C94.4427 24.5104 95.0625 24.3906 95.75 24.3906C96.7917 24.3906 97.6172 24.6536 98.2266 25.1797C98.8411 25.7005 99.1484 26.4349 99.1484 27.3828V31.0469C99.1536 31.849 99.2656 32.4557 99.4844 32.8672V33H97.2031ZM95.3359 31.4297C95.6693 31.4297 95.9766 31.3568 96.2578 31.2109C96.5391 31.0599 96.7474 30.8594 96.8828 30.6094V29.1562H96.0391C94.9089 29.1562 94.3073 29.5469 94.2344 30.3281L94.2266 30.4609C94.2266 30.7422 94.3255 30.974 94.5234 31.1562C94.7214 31.3385 94.9922 31.4297 95.3359 31.4297ZM113.109 23.5234H109.625V33H107.281V23.5234H103.844V21.625H113.109V23.5234ZM117.891 33C117.786 32.7969 117.711 32.5443 117.664 32.2422C117.117 32.8516 116.406 33.1562 115.531 33.1562C114.703 33.1562 114.016 32.9167 113.469 32.4375C112.927 31.9583 112.656 31.3542 112.656 30.625C112.656 29.7292 112.987 29.0417 113.648 28.5625C114.315 28.0833 115.276 27.8411 116.531 27.8359H117.57V27.3516C117.57 26.9609 117.469 26.6484 117.266 26.4141C117.068 26.1797 116.753 26.0625 116.32 26.0625C115.94 26.0625 115.641 26.1536 115.422 26.3359C115.208 26.5182 115.102 26.7682 115.102 27.0859H112.844C112.844 26.5964 112.995 26.1432 113.297 25.7266C113.599 25.3099 114.026 24.9844 114.578 24.75C115.13 24.5104 115.75 24.3906 116.438 24.3906C117.479 24.3906 118.305 24.6536 118.914 25.1797C119.529 25.7005 119.836 26.4349 119.836 27.3828V31.0469C119.841 31.849 119.953 32.4557 120.172 32.8672V33H117.891ZM116.023 31.4297C116.357 31.4297 116.664 31.3568 116.945 31.2109C117.227 31.0599 117.435 30.8594 117.57 30.6094V29.1562H116.727C115.596 29.1562 114.995 29.5469 114.922 30.3281L114.914 30.4609C114.914 30.7422 115.013 30.974 115.211 31.1562C115.409 31.3385 115.68 31.4297 116.023 31.4297ZM126.148 30.6641C126.148 30.388 126.01 30.1719 125.734 30.0156C125.464 29.8542 125.026 29.7109 124.422 29.5859C122.411 29.1641 121.406 28.3099 121.406 27.0234C121.406 26.2734 121.716 25.6484 122.336 25.1484C122.961 24.6432 123.776 24.3906 124.781 24.3906C125.854 24.3906 126.711 24.6432 127.352 25.1484C127.997 25.6536 128.32 26.3099 128.32 27.1172H126.062C126.062 26.7943 125.958 26.5286 125.75 26.3203C125.542 26.1068 125.216 26 124.773 26C124.393 26 124.099 26.0859 123.891 26.2578C123.682 26.4297 123.578 26.6484 123.578 26.9141C123.578 27.1641 123.695 27.3672 123.93 27.5234C124.169 27.6745 124.57 27.8073 125.133 27.9219C125.695 28.0312 126.169 28.1562 126.555 28.2969C127.747 28.7344 128.344 29.4922 128.344 30.5703C128.344 31.3411 128.013 31.9661 127.352 32.4453C126.69 32.9193 125.836 33.1562 124.789 33.1562C124.081 33.1562 123.451 33.0312 122.898 32.7812C122.352 32.526 121.922 32.1797 121.609 31.7422C121.297 31.2995 121.141 30.8229 121.141 30.3125H123.281C123.302 30.7135 123.451 31.0208 123.727 31.2344C124.003 31.4479 124.372 31.5547 124.836 31.5547C125.268 31.5547 125.594 31.474 125.812 31.3125C126.036 31.1458 126.148 30.9297 126.148 30.6641ZM132.875 29.6094L132.062 30.4219V33H129.805V21H132.062V27.6484L132.5 27.0859L134.664 24.5469H137.375L134.32 28.0703L137.641 33H135.047L132.875 29.6094Z" fill="white"/>
</g>
<defs>
<filter id="filter0_d" x="0" y="0" width="178" height="56" filterUnits="userSpaceOnUse" color-interpolation-filters="sRGB">
<feFlood flood-opacity="0" result="BackgroundImageFix"/>
<feColorMatrix in="SourceAlpha" type="matrix" values="0 0 0 0 0 0 0 0 0 0 0 0 0 0 0 0 0 0 127 0" result="hardAlpha"/>
<feOffset/>
<feGaussianBlur stdDeviation="4"/>
<feColorMatrix type="matrix" values="0 0 0 0 0.2 0 0 0 0 0.2 0 0 0 0 0.2 0 0 0 0.2 0"/>
<feBlend mode="normal" in2="BackgroundImageFix" result="effect1_dropShadow"/>
<feBlend mode="normal" in="SourceGraphic" in2="effect1_dropShadow" result="shape"/>
</filter>
</defs>
</svg>
