<svg width="40" height="40" viewBox="0 0 40 40" fill="none" xmlns="http://www.w3.org/2000/svg">
<rect width="40" height="40" rx="20" fill="#334C60"/>
<path d="M23.0769 19.7692C23.0769 18.5833 22.6554 17.5689 21.8125 16.726C20.9696 15.883 19.9551 15.4615 18.7692 15.4615C17.5833 15.4615 16.5689 15.883 15.726 16.726C14.883 17.5689 14.4615 18.5833 14.4615 19.7692C14.4615 20.9551 14.883 21.9696 15.726 22.8125C16.5689 23.6554 17.5833 24.0769 18.7692 24.0769C19.9551 24.0769 20.9696 23.6554 21.8125 22.8125C22.6554 21.9696 23.0769 20.9551 23.0769 19.7692ZM28 27.7692C28 28.1026 27.8782 28.391 27.6346 28.6346C27.391 28.8782 27.1026 29 26.7692 29C26.4231 29 26.1346 28.8782 25.9038 28.6346L22.6058 25.3462C21.4583 26.141 20.1795 26.5385 18.7692 26.5385C17.8526 26.5385 16.976 26.3606 16.1394 26.0048C15.3029 25.649 14.5817 25.1683 13.976 24.5625C13.3702 23.9567 12.8894 23.2356 12.5337 22.399C12.1779 21.5625 12 20.6859 12 19.7692C12 18.8526 12.1779 17.976 12.5337 17.1394C12.8894 16.3029 13.3702 15.5817 13.976 14.976C14.5817 14.3702 15.3029 13.8894 16.1394 13.5337C16.976 13.1779 17.8526 13 18.7692 13C19.6859 13 20.5625 13.1779 21.399 13.5337C22.2356 13.8894 22.9567 14.3702 23.5625 14.976C24.1683 15.5817 24.649 16.3029 25.0048 17.1394C25.3606 17.976 25.5385 18.8526 25.5385 19.7692C25.5385 21.1795 25.141 22.4583 24.3462 23.6058L27.6442 26.9038C27.8814 27.141 28 27.4295 28 27.7692Z" fill="white"/>
</svg>
