<svg width="354" height="244" viewBox="0 0 354 244" fill="none" xmlns="http://www.w3.org/2000/svg">
<ellipse cx="341.538" cy="13.4613" rx="11.5385" ry="11.5385" fill="#1DB954"/>
<path d="M342.699 12.1777H346.41V14.3457H342.699V18.5742H340.395V14.3457H336.664V12.1777H340.395V8.22266H342.699V12.1777Z" fill="white"/>
<path d="M13.5 88H5.85156V86.6953L9.64062 82.5625C10.1875 81.9531 10.5755 81.4453 10.8047 81.0391C11.0391 80.6276 11.1562 80.2161 11.1562 79.8047C11.1562 79.263 11.0026 78.8255 10.6953 78.4922C10.3932 78.1589 9.98438 77.9922 9.46875 77.9922C8.85417 77.9922 8.3776 78.1797 8.03906 78.5547C7.70052 78.9297 7.53125 79.4427 7.53125 80.0938H5.63281C5.63281 79.401 5.78906 78.7786 6.10156 78.2266C6.41927 77.6693 6.86979 77.237 7.45312 76.9297C8.04167 76.6224 8.71875 76.4688 9.48438 76.4688C10.5885 76.4688 11.4583 76.7474 12.0938 77.3047C12.7344 77.8568 13.0547 78.6224 13.0547 79.6016C13.0547 80.1693 12.8932 80.7656 12.5703 81.3906C12.2526 82.0104 11.7292 82.7161 11 83.5078L8.21875 86.4844H13.5V88ZM20.0859 88H18.1953V78.8672L15.4062 79.8203V78.2188L19.8438 76.5859H20.0859V88Z" fill="#334C60"/>
<path d="M2.44336 51.4688L5.23242 58.4297L8.02148 51.4688H9.48047V60H8.35547V56.6777L8.46094 53.0918L5.66016 60H4.79883L2.00391 53.1094L2.11523 56.6777V60H0.990234V51.4688H2.44336ZM18.0293 56.0098C18.0293 56.8457 17.8887 57.5762 17.6074 58.2012C17.3262 58.8223 16.9277 59.2969 16.4121 59.625C15.8965 59.9531 15.2949 60.1172 14.6074 60.1172C13.9355 60.1172 13.3398 59.9531 12.8203 59.625C12.3008 59.293 11.8965 58.8223 11.6074 58.2129C11.3223 57.5996 11.1758 56.8906 11.168 56.0859V55.4707C11.168 54.6504 11.3105 53.9258 11.5957 53.2969C11.8809 52.668 12.2832 52.1875 12.8027 51.8555C13.3262 51.5195 13.9238 51.3516 14.5957 51.3516C15.2793 51.3516 15.8809 51.5176 16.4004 51.8496C16.9238 52.1777 17.3262 52.6562 17.6074 53.2852C17.8887 53.9102 18.0293 54.6387 18.0293 55.4707V56.0098ZM16.9102 55.459C16.9102 54.4473 16.707 53.6719 16.3008 53.1328C15.8945 52.5898 15.3262 52.3184 14.5957 52.3184C13.8848 52.3184 13.3242 52.5898 12.9141 53.1328C12.5078 53.6719 12.2988 54.4219 12.2871 55.3828V56.0098C12.2871 56.9902 12.4922 57.7617 12.9023 58.3242C13.3164 58.8828 13.8848 59.1621 14.6074 59.1621C15.334 59.1621 15.8965 58.8984 16.2949 58.3711C16.6934 57.8398 16.8984 57.0801 16.9102 56.0918V55.459ZM26.2734 60H25.1426L20.8477 53.4258V60H19.7168V51.4688H20.8477L25.1543 58.0723V51.4688H26.2734V60Z" fill="#AEAEAE"/>
<path d="M67.5703 88H59.7734V86.4531L63.4531 82.5312C63.9583 81.9792 64.3307 81.4974 64.5703 81.0859C64.8151 80.6745 64.9375 80.2839 64.9375 79.9141C64.9375 79.4089 64.8099 79.013 64.5547 78.7266C64.2995 78.4349 63.9349 78.2891 63.4609 78.2891C62.9505 78.2891 62.5469 78.4661 62.25 78.8203C61.9583 79.1693 61.8125 79.6302 61.8125 80.2031H59.5469C59.5469 79.5104 59.7109 78.8776 60.0391 78.3047C60.3724 77.7318 60.8411 77.2839 61.4453 76.9609C62.0495 76.6328 62.7344 76.4688 63.5 76.4688C64.6719 76.4688 65.5807 76.75 66.2266 77.3125C66.8776 77.875 67.2031 78.6693 67.2031 79.6953C67.2031 80.2578 67.0573 80.8307 66.7656 81.4141C66.474 81.9974 65.974 82.6771 65.2656 83.4531L62.6797 86.1797H67.5703V88ZM76.7578 88H68.9609V86.4531L72.6406 82.5312C73.1458 81.9792 73.5182 81.4974 73.7578 81.0859C74.0026 80.6745 74.125 80.2839 74.125 79.9141C74.125 79.4089 73.9974 79.013 73.7422 78.7266C73.487 78.4349 73.1224 78.2891 72.6484 78.2891C72.138 78.2891 71.7344 78.4661 71.4375 78.8203C71.1458 79.1693 71 79.6302 71 80.2031H68.7344C68.7344 79.5104 68.8984 78.8776 69.2266 78.3047C69.5599 77.7318 70.0286 77.2839 70.6328 76.9609C71.237 76.6328 71.9219 76.4688 72.6875 76.4688C73.8594 76.4688 74.7682 76.75 75.4141 77.3125C76.0651 77.875 76.3906 78.6693 76.3906 79.6953C76.3906 80.2578 76.2448 80.8307 75.9531 81.4141C75.6615 81.9974 75.1615 82.6771 74.4531 83.4531L71.8672 86.1797H76.7578V88Z" fill="#1DB954"/>
<path d="M65.1836 52.8926H62.5703V60H60.8125V52.8926H58.2344V51.4688H65.1836V52.8926ZM72.6484 51.4688V57.0879C72.6484 58.0215 72.3555 58.7598 71.7695 59.3027C71.1875 59.8457 70.3906 60.1172 69.3789 60.1172C68.3828 60.1172 67.5918 59.8535 67.0059 59.3262C66.4199 58.7988 66.1211 58.0742 66.1094 57.1523V51.4688H67.8672V57.0996C67.8672 57.6582 68 58.0664 68.2656 58.3242C68.5352 58.5781 68.9062 58.7051 69.3789 58.7051C70.3672 58.7051 70.8691 58.1855 70.8848 57.1465V51.4688H72.6484ZM79.2227 56.3027H75.8477V58.5879H79.8086V60H74.0898V51.4688H79.7969V52.8926H75.8477V54.9258H79.2227V56.3027Z" fill="#1DB954"/>
<path d="M123.5 88H115.852V86.6953L119.641 82.5625C120.188 81.9531 120.576 81.4453 120.805 81.0391C121.039 80.6276 121.156 80.2161 121.156 79.8047C121.156 79.263 121.003 78.8255 120.695 78.4922C120.393 78.1589 119.984 77.9922 119.469 77.9922C118.854 77.9922 118.378 78.1797 118.039 78.5547C117.701 78.9297 117.531 79.4427 117.531 80.0938H115.633C115.633 79.401 115.789 78.7786 116.102 78.2266C116.419 77.6693 116.87 77.237 117.453 76.9297C118.042 76.6224 118.719 76.4688 119.484 76.4688C120.589 76.4688 121.458 76.7474 122.094 77.3047C122.734 77.8568 123.055 78.6224 123.055 79.6016C123.055 80.1693 122.893 80.7656 122.57 81.3906C122.253 82.0104 121.729 82.7161 121 83.5078L118.219 86.4844H123.5V88ZM127.141 81.4453H128.297C128.88 81.4401 129.341 81.2891 129.68 80.9922C130.023 80.6953 130.195 80.2656 130.195 79.7031C130.195 79.1615 130.052 78.7422 129.766 78.4453C129.484 78.1432 129.052 77.9922 128.469 77.9922C127.958 77.9922 127.539 78.1406 127.211 78.4375C126.883 78.7292 126.719 79.112 126.719 79.5859H124.82C124.82 79.0026 124.974 78.4714 125.281 77.9922C125.594 77.513 126.026 77.1406 126.578 76.875C127.135 76.6042 127.758 76.4688 128.445 76.4688C129.581 76.4688 130.471 76.7552 131.117 77.3281C131.768 77.8958 132.094 78.6875 132.094 79.7031C132.094 80.2135 131.93 80.6953 131.602 81.1484C131.279 81.5964 130.859 81.9349 130.344 82.1641C130.969 82.3776 131.443 82.7135 131.766 83.1719C132.094 83.6302 132.258 84.1771 132.258 84.8125C132.258 85.8333 131.906 86.6458 131.203 87.25C130.505 87.8542 129.586 88.1562 128.445 88.1562C127.352 88.1562 126.456 87.8646 125.758 87.2812C125.06 86.6979 124.711 85.9219 124.711 84.9531H126.609C126.609 85.4531 126.776 85.8594 127.109 86.1719C127.448 86.4844 127.901 86.6406 128.469 86.6406C129.057 86.6406 129.521 86.4844 129.859 86.1719C130.198 85.8594 130.367 85.4062 130.367 84.8125C130.367 84.2135 130.19 83.7526 129.836 83.4297C129.482 83.1068 128.956 82.9453 128.258 82.9453H127.141V81.4453Z" fill="#334C60"/>
<path d="M113.83 57.3105L113.994 58.4355L114.234 57.4219L115.922 51.4688H116.871L118.518 57.4219L118.752 58.4531L118.934 57.3047L120.258 51.4688H121.389L119.32 60H118.295L116.537 53.7832L116.402 53.1328L116.268 53.7832L114.445 60H113.42L111.357 51.4688H112.482L113.83 57.3105ZM127.465 56.0566H123.768V59.0801H128.062V60H122.643V51.4688H128.004V52.3945H123.768V55.1367H127.465V56.0566ZM129.463 60V51.4688H131.871C132.613 51.4688 133.27 51.6328 133.84 51.9609C134.41 52.2891 134.85 52.7559 135.158 53.3613C135.471 53.9668 135.629 54.6621 135.633 55.4473V55.9922C135.633 56.7969 135.477 57.502 135.164 58.1074C134.855 58.7129 134.412 59.1777 133.834 59.502C133.26 59.8262 132.59 59.9922 131.824 60H129.463ZM130.588 52.3945V59.0801H131.771C132.639 59.0801 133.312 58.8105 133.793 58.2715C134.277 57.7324 134.52 56.9648 134.52 55.9688V55.4707C134.52 54.502 134.291 53.75 133.834 53.2148C133.381 52.6758 132.736 52.4023 131.9 52.3945H130.588Z" fill="#AEAEAE"/>
<path d="M177.5 88H169.852V86.6953L173.641 82.5625C174.188 81.9531 174.576 81.4453 174.805 81.0391C175.039 80.6276 175.156 80.2161 175.156 79.8047C175.156 79.263 175.003 78.8255 174.695 78.4922C174.393 78.1589 173.984 77.9922 173.469 77.9922C172.854 77.9922 172.378 78.1797 172.039 78.5547C171.701 78.9297 171.531 79.4427 171.531 80.0938H169.633C169.633 79.401 169.789 78.7786 170.102 78.2266C170.419 77.6693 170.87 77.237 171.453 76.9297C172.042 76.6224 172.719 76.4688 173.484 76.4688C174.589 76.4688 175.458 76.7474 176.094 77.3047C176.734 77.8568 177.055 78.6224 177.055 79.6016C177.055 80.1693 176.893 80.7656 176.57 81.3906C176.253 82.0104 175.729 82.7161 175 83.5078L172.219 86.4844H177.5V88ZM185.367 83.9453H186.781V85.4688H185.367V88H183.469V85.4688H178.555L178.5 84.3125L183.406 76.625H185.367V83.9453ZM180.492 83.9453H183.469V79.1953L183.328 79.4453L180.492 83.9453Z" fill="#334C60"/>
<path d="M173.885 52.3945H171.143V60H170.023V52.3945H167.287V51.4688H173.885V52.3945ZM181.707 60H180.576V56.0566H176.275V60H175.15V51.4688H176.275V55.1367H180.576V51.4688H181.707V60ZM189.711 51.4688V57.2695C189.707 58.0742 189.453 58.7324 188.949 59.2441C188.449 59.7559 187.77 60.043 186.91 60.1055L186.611 60.1172C185.678 60.1172 184.934 59.8652 184.379 59.3613C183.824 58.8574 183.543 58.1641 183.535 57.2812V51.4688H184.648V57.2461C184.648 57.8633 184.818 58.3438 185.158 58.6875C185.498 59.0273 185.982 59.1973 186.611 59.1973C187.248 59.1973 187.734 59.0273 188.07 58.6875C188.41 58.3477 188.58 57.8691 188.58 57.252V51.4688H189.711Z" fill="#AEAEAE"/>
<path d="M229.5 88H221.852V86.6953L225.641 82.5625C226.188 81.9531 226.576 81.4453 226.805 81.0391C227.039 80.6276 227.156 80.2161 227.156 79.8047C227.156 79.263 227.003 78.8255 226.695 78.4922C226.393 78.1589 225.984 77.9922 225.469 77.9922C224.854 77.9922 224.378 78.1797 224.039 78.5547C223.701 78.9297 223.531 79.4427 223.531 80.0938H221.633C221.633 79.401 221.789 78.7786 222.102 78.2266C222.419 77.6693 222.87 77.237 223.453 76.9297C224.042 76.6224 224.719 76.4688 225.484 76.4688C226.589 76.4688 227.458 76.7474 228.094 77.3047C228.734 77.8568 229.055 78.6224 229.055 79.6016C229.055 80.1693 228.893 80.7656 228.57 81.3906C228.253 82.0104 227.729 82.7161 227 83.5078L224.219 86.4844H229.5V88ZM231.453 82.3594L232.07 76.625H238.18V78.2656H233.648L233.336 80.9844C233.862 80.6823 234.456 80.5312 235.117 80.5312C236.201 80.5312 237.042 80.8776 237.641 81.5703C238.245 82.263 238.547 83.1953 238.547 84.3672C238.547 85.5234 238.214 86.4453 237.547 87.1328C236.88 87.8151 235.966 88.1562 234.805 88.1562C233.763 88.1562 232.898 87.862 232.211 87.2734C231.529 86.6797 231.159 85.8984 231.102 84.9297H232.938C233.01 85.4818 233.208 85.9062 233.531 86.2031C233.854 86.4948 234.276 86.6406 234.797 86.6406C235.38 86.6406 235.833 86.4323 236.156 86.0156C236.484 85.599 236.648 85.0312 236.648 84.3125C236.648 83.6198 236.469 83.0729 236.109 82.6719C235.75 82.2656 235.255 82.0625 234.625 82.0625C234.281 82.0625 233.99 82.1094 233.75 82.2031C233.51 82.2917 233.25 82.4688 232.969 82.7344L231.453 82.3594Z" fill="#334C60"/>
<path d="M227.695 56.2324H224.115V60H222.99V51.4688H228.275V52.3945H224.115V55.3125H227.695V56.2324ZM232.752 56.5488H230.748V60H229.617V51.4688H232.441C233.402 51.4688 234.141 51.6875 234.656 52.125C235.176 52.5625 235.436 53.1992 235.436 54.0352C235.436 54.5664 235.291 55.0293 235.002 55.4238C234.717 55.8184 234.318 56.1133 233.807 56.3086L235.811 59.9297V60H234.604L232.752 56.5488ZM230.748 55.6289H232.477C233.035 55.6289 233.479 55.4844 233.807 55.1953C234.139 54.9062 234.305 54.5195 234.305 54.0352C234.305 53.5078 234.146 53.1035 233.83 52.8223C233.518 52.541 233.064 52.3984 232.471 52.3945H230.748V55.6289ZM238.225 60H237.1V51.4688H238.225V60Z" fill="#AEAEAE"/>
<path d="M279.5 88H271.852V86.6953L275.641 82.5625C276.188 81.9531 276.576 81.4453 276.805 81.0391C277.039 80.6276 277.156 80.2161 277.156 79.8047C277.156 79.263 277.003 78.8255 276.695 78.4922C276.393 78.1589 275.984 77.9922 275.469 77.9922C274.854 77.9922 274.378 78.1797 274.039 78.5547C273.701 78.9297 273.531 79.4427 273.531 80.0938H271.633C271.633 79.401 271.789 78.7786 272.102 78.2266C272.419 77.6693 272.87 77.237 273.453 76.9297C274.042 76.6224 274.719 76.4688 275.484 76.4688C276.589 76.4688 277.458 76.7474 278.094 77.3047C278.734 77.8568 279.055 78.6224 279.055 79.6016C279.055 80.1693 278.893 80.7656 278.57 81.3906C278.253 82.0104 277.729 82.7161 277 83.5078L274.219 86.4844H279.5V88ZM286.852 76.5703V78.1406H286.617C285.555 78.1562 284.706 78.4479 284.07 79.0156C283.435 79.5833 283.057 80.388 282.938 81.4297C283.547 80.7891 284.326 80.4688 285.273 80.4688C286.279 80.4688 287.07 80.8229 287.648 81.5312C288.232 82.2396 288.523 83.1536 288.523 84.2734C288.523 85.4297 288.182 86.3672 287.5 87.0859C286.823 87.7995 285.932 88.1562 284.828 88.1562C283.693 88.1562 282.771 87.737 282.062 86.8984C281.359 86.0599 281.008 84.9609 281.008 83.6016V82.9531C281.008 80.9583 281.492 79.3958 282.461 78.2656C283.435 77.1354 284.833 76.5703 286.656 76.5703H286.852ZM284.812 82C284.396 82 284.013 82.1172 283.664 82.3516C283.32 82.5859 283.068 82.8984 282.906 83.2891V83.8672C282.906 84.7109 283.083 85.3828 283.438 85.8828C283.792 86.3776 284.25 86.625 284.812 86.625C285.375 86.625 285.82 86.4141 286.148 85.9922C286.477 85.5703 286.641 85.0156 286.641 84.3281C286.641 83.6406 286.474 83.0807 286.141 82.6484C285.807 82.2161 285.365 82 284.812 82Z" fill="#334C60"/>
<path d="M273.504 56.1973C272.539 55.9199 271.836 55.5801 271.395 55.1777C270.957 54.7715 270.738 54.2715 270.738 53.6777C270.738 53.0059 271.006 52.4512 271.541 52.0137C272.08 51.5723 272.779 51.3516 273.639 51.3516C274.225 51.3516 274.746 51.4648 275.203 51.6914C275.664 51.918 276.02 52.2305 276.27 52.6289C276.523 53.0273 276.65 53.4629 276.65 53.9355H275.52C275.52 53.4199 275.355 53.0156 275.027 52.7227C274.699 52.4258 274.236 52.2773 273.639 52.2773C273.084 52.2773 272.65 52.4004 272.338 52.6465C272.029 52.8887 271.875 53.2266 271.875 53.6602C271.875 54.0078 272.021 54.3027 272.314 54.5449C272.611 54.7832 273.113 55.002 273.82 55.2012C274.531 55.4004 275.086 55.6211 275.484 55.8633C275.887 56.1016 276.184 56.3809 276.375 56.7012C276.57 57.0215 276.668 57.3984 276.668 57.832C276.668 58.5234 276.398 59.0781 275.859 59.4961C275.32 59.9102 274.6 60.1172 273.697 60.1172C273.111 60.1172 272.564 60.0059 272.057 59.7832C271.549 59.5566 271.156 59.248 270.879 58.8574C270.605 58.4668 270.469 58.0234 270.469 57.5273H271.6C271.6 58.043 271.789 58.4512 272.168 58.752C272.551 59.0488 273.061 59.1973 273.697 59.1973C274.291 59.1973 274.746 59.0762 275.062 58.834C275.379 58.5918 275.537 58.2617 275.537 57.8438C275.537 57.4258 275.391 57.1035 275.098 56.877C274.805 56.6465 274.273 56.4199 273.504 56.1973ZM282.826 57.7734H279.252L278.449 60H277.289L280.547 51.4688H281.531L284.795 60H283.641L282.826 57.7734ZM279.592 56.8477H282.492L281.039 52.8574L279.592 56.8477ZM291.076 52.3945H288.334V60H287.215V52.3945H284.479V51.4688H291.076V52.3945Z" fill="#AEAEAE"/>
<path d="M332.5 88H324.852V86.6953L328.641 82.5625C329.188 81.9531 329.576 81.4453 329.805 81.0391C330.039 80.6276 330.156 80.2161 330.156 79.8047C330.156 79.263 330.003 78.8255 329.695 78.4922C329.393 78.1589 328.984 77.9922 328.469 77.9922C327.854 77.9922 327.378 78.1797 327.039 78.5547C326.701 78.9297 326.531 79.4427 326.531 80.0938H324.633C324.633 79.401 324.789 78.7786 325.102 78.2266C325.419 77.6693 325.87 77.237 326.453 76.9297C327.042 76.6224 327.719 76.4688 328.484 76.4688C329.589 76.4688 330.458 76.7474 331.094 77.3047C331.734 77.8568 332.055 78.6224 332.055 79.6016C332.055 80.1693 331.893 80.7656 331.57 81.3906C331.253 82.0104 330.729 82.7161 330 83.5078L327.219 86.4844H332.5V88ZM341.516 77.6797L336.969 88H334.977L339.516 78.1484H333.633V76.625H341.516V77.6797Z" fill="#334C60"/>
<path d="M325.504 56.1973C324.539 55.9199 323.836 55.5801 323.395 55.1777C322.957 54.7715 322.738 54.2715 322.738 53.6777C322.738 53.0059 323.006 52.4512 323.541 52.0137C324.08 51.5723 324.779 51.3516 325.639 51.3516C326.225 51.3516 326.746 51.4648 327.203 51.6914C327.664 51.918 328.02 52.2305 328.27 52.6289C328.523 53.0273 328.65 53.4629 328.65 53.9355H327.52C327.52 53.4199 327.355 53.0156 327.027 52.7227C326.699 52.4258 326.236 52.2773 325.639 52.2773C325.084 52.2773 324.65 52.4004 324.338 52.6465C324.029 52.8887 323.875 53.2266 323.875 53.6602C323.875 54.0078 324.021 54.3027 324.314 54.5449C324.611 54.7832 325.113 55.002 325.82 55.2012C326.531 55.4004 327.086 55.6211 327.484 55.8633C327.887 56.1016 328.184 56.3809 328.375 56.7012C328.57 57.0215 328.668 57.3984 328.668 57.832C328.668 58.5234 328.398 59.0781 327.859 59.4961C327.32 59.9102 326.6 60.1172 325.697 60.1172C325.111 60.1172 324.564 60.0059 324.057 59.7832C323.549 59.5566 323.156 59.248 322.879 58.8574C322.605 58.4668 322.469 58.0234 322.469 57.5273H323.6C323.6 58.043 323.789 58.4512 324.168 58.752C324.551 59.0488 325.061 59.1973 325.697 59.1973C326.291 59.1973 326.746 59.0762 327.062 58.834C327.379 58.5918 327.537 58.2617 327.537 57.8438C327.537 57.4258 327.391 57.1035 327.098 56.877C326.805 56.6465 326.273 56.4199 325.504 56.1973ZM336.121 51.4688V57.2695C336.117 58.0742 335.863 58.7324 335.359 59.2441C334.859 59.7559 334.18 60.043 333.32 60.1055L333.021 60.1172C332.088 60.1172 331.344 59.8652 330.789 59.3613C330.234 58.8574 329.953 58.1641 329.945 57.2812V51.4688H331.059V57.2461C331.059 57.8633 331.229 58.3438 331.568 58.6875C331.908 59.0273 332.393 59.1973 333.021 59.1973C333.658 59.1973 334.145 59.0273 334.48 58.6875C334.82 58.3477 334.99 57.8691 334.99 57.252V51.4688H336.121ZM344.453 60H343.322L339.027 53.4258V60H337.896V51.4688H339.027L343.334 58.0723V51.4688H344.453V60Z" fill="#AEAEAE"/>
<path d="M7.37695 10.2227C7.29102 11.1328 6.95508 11.8438 6.36914 12.3555C5.7832 12.8633 5.00391 13.1172 4.03125 13.1172C3.35156 13.1172 2.75195 12.957 2.23242 12.6367C1.7168 12.3125 1.31836 11.8535 1.03711 11.2598C0.755859 10.666 0.609375 9.97656 0.597656 9.19141V8.39453C0.597656 7.58984 0.740234 6.88086 1.02539 6.26758C1.31055 5.6543 1.71875 5.18164 2.25 4.84961C2.78516 4.51758 3.40234 4.35156 4.10156 4.35156C5.04297 4.35156 5.80078 4.60742 6.375 5.11914C6.94922 5.63086 7.2832 6.35352 7.37695 7.28711H5.90039C5.83008 6.67383 5.65039 6.23242 5.36133 5.96289C5.07617 5.68945 4.65625 5.55273 4.10156 5.55273C3.45703 5.55273 2.96094 5.78906 2.61328 6.26172C2.26953 6.73047 2.09375 7.41992 2.08594 8.33008V9.08594C2.08594 10.0078 2.25 10.7109 2.57812 11.1953C2.91016 11.6797 3.39453 11.9219 4.03125 11.9219C4.61328 11.9219 5.05078 11.791 5.34375 11.5293C5.63672 11.2676 5.82227 10.832 5.90039 10.2227H7.37695ZM13.4824 11.0137H10.1777L9.48633 13H7.94531L11.168 4.46875H12.498L15.7266 13H14.1797L13.4824 11.0137ZM10.5938 9.81836H13.0664L11.8301 6.2793L10.5938 9.81836ZM18.1816 11.8164H22.0547V13H16.6992V4.46875H18.1816V11.8164ZM28.1777 9.19141H24.6738V11.8164H28.7695V13H23.1914V4.46875H28.7285V5.66406H24.6738V8.01953H28.1777V9.19141ZM36.7441 13H35.2617L31.459 6.94727V13H29.9766V4.46875H31.459L35.2734 10.5449V4.46875H36.7441V13ZM38.4961 13V4.46875H41.0156C41.7695 4.46875 42.4375 4.63672 43.0195 4.97266C43.6055 5.30859 44.0586 5.78516 44.3789 6.40234C44.6992 7.01953 44.8594 7.72656 44.8594 8.52344V8.95117C44.8594 9.75977 44.6973 10.4707 44.373 11.084C44.0527 11.6973 43.5938 12.1699 42.9961 12.502C42.4023 12.834 41.7207 13 40.9512 13H38.4961ZM39.9785 5.66406V11.8164H40.9453C41.7227 11.8164 42.3184 11.5742 42.7324 11.0898C43.1504 10.6016 43.3633 9.90234 43.3711 8.99219V8.51758C43.3711 7.5918 43.1699 6.88477 42.7676 6.39648C42.3652 5.9082 41.7812 5.66406 41.0156 5.66406H39.9785ZM50.9824 11.0137H47.6777L46.9863 13H45.4453L48.668 4.46875H49.998L53.2266 13H51.6797L50.9824 11.0137ZM48.0938 9.81836H50.5664L49.3301 6.2793L48.0938 9.81836ZM57.334 9.71289H55.6816V13H54.1992V4.46875H57.1992C58.1836 4.46875 58.9434 4.68945 59.4785 5.13086C60.0137 5.57227 60.2812 6.21094 60.2812 7.04688C60.2812 7.61719 60.1426 8.0957 59.8652 8.48242C59.5918 8.86523 59.209 9.16016 58.7168 9.36719L60.6328 12.9238V13H59.0449L57.334 9.71289ZM55.6816 8.52344H57.2051C57.7051 8.52344 58.0957 8.39844 58.377 8.14844C58.6582 7.89453 58.7988 7.54883 58.7988 7.11133C58.7988 6.6543 58.668 6.30078 58.4062 6.05078C58.1484 5.80078 57.7617 5.67188 57.2461 5.66406H55.6816V8.52344Z" fill="#334C60"/>
<line x1="1" y1="97.85" x2="346" y2="97.85" stroke="#AEAEAE" stroke-width="0.3"/>
<line x1="55" y1="97" x2="81" y2="97" stroke="#1DB954" stroke-width="2"/>
<path d="M77.3804 122H76.1616V112.758H77.3804V122ZM82.3379 117.88C81.2926 117.58 80.5309 117.212 80.0527 116.776C79.5788 116.336 79.3418 115.794 79.3418 115.151C79.3418 114.423 79.6317 113.822 80.2114 113.348C80.7954 112.87 81.5529 112.631 82.4839 112.631C83.1187 112.631 83.6836 112.754 84.1787 112.999C84.6781 113.244 85.0632 113.583 85.334 114.015C85.609 114.446 85.7466 114.918 85.7466 115.43H84.5215C84.5215 114.872 84.3438 114.434 83.9883 114.116C83.6328 113.795 83.1313 113.634 82.4839 113.634C81.883 113.634 81.4132 113.767 81.0747 114.034C80.7404 114.296 80.5732 114.662 80.5732 115.132C80.5732 115.508 80.7319 115.828 81.0493 116.09C81.3709 116.348 81.9147 116.585 82.6807 116.801C83.4508 117.017 84.0518 117.256 84.4834 117.519C84.9193 117.777 85.2409 118.079 85.4482 118.426C85.6598 118.773 85.7656 119.182 85.7656 119.651C85.7656 120.4 85.4736 121.001 84.8896 121.454C84.3057 121.903 83.5249 122.127 82.5474 122.127C81.9126 122.127 81.3201 122.006 80.77 121.765C80.2199 121.52 79.7946 121.185 79.4941 120.762C79.1979 120.339 79.0498 119.859 79.0498 119.321H80.2749C80.2749 119.88 80.4801 120.322 80.8906 120.648C81.3053 120.97 81.8576 121.13 82.5474 121.13C83.1906 121.13 83.6836 120.999 84.0264 120.737C84.3691 120.474 84.5405 120.117 84.5405 119.664C84.5405 119.211 84.3818 118.862 84.0645 118.617C83.7471 118.367 83.1715 118.122 82.3379 117.88ZM94.4429 117.677C94.4429 118.583 94.2905 119.374 93.9858 120.051C93.6812 120.724 93.2495 121.238 92.6909 121.594C92.1323 121.949 91.4806 122.127 90.7358 122.127C90.008 122.127 89.3626 121.949 88.7998 121.594C88.237 121.234 87.799 120.724 87.4858 120.064C87.1769 119.4 87.0182 118.632 87.0098 117.76V117.093C87.0098 116.205 87.1642 115.42 87.4731 114.738C87.7821 114.057 88.2179 113.536 88.7808 113.177C89.3478 112.813 89.9953 112.631 90.7231 112.631C91.4637 112.631 92.1154 112.811 92.6782 113.17C93.2453 113.526 93.6812 114.044 93.9858 114.726C94.2905 115.403 94.4429 116.192 94.4429 117.093V117.677ZM93.2305 117.081C93.2305 115.985 93.0104 115.145 92.5703 114.561C92.1302 113.972 91.5145 113.678 90.7231 113.678C89.953 113.678 89.3457 113.972 88.9014 114.561C88.4613 115.145 88.2349 115.957 88.2222 116.998V117.677C88.2222 118.739 88.4443 119.575 88.8887 120.185C89.3372 120.79 89.953 121.092 90.7358 121.092C91.5229 121.092 92.1323 120.807 92.564 120.235C92.9956 119.66 93.2178 118.837 93.2305 117.766V117.081ZM99.4956 122V112.758H102.104C102.909 112.758 103.619 112.936 104.237 113.291C104.855 113.646 105.331 114.152 105.666 114.808C106.004 115.464 106.175 116.217 106.18 117.068V117.658C106.18 118.53 106.01 119.294 105.672 119.95C105.338 120.606 104.857 121.109 104.231 121.46C103.609 121.812 102.883 121.992 102.054 122H99.4956ZM100.714 113.761V121.003H101.997C102.936 121.003 103.666 120.711 104.187 120.127C104.711 119.543 104.974 118.712 104.974 117.633V117.093C104.974 116.044 104.726 115.229 104.231 114.649C103.74 114.065 103.042 113.769 102.136 113.761H100.714ZM110.693 122.127C109.762 122.127 109.004 121.822 108.42 121.213C107.836 120.599 107.544 119.78 107.544 118.756V118.541C107.544 117.859 107.674 117.252 107.932 116.719C108.194 116.181 108.558 115.762 109.023 115.462C109.493 115.157 110.001 115.005 110.547 115.005C111.44 115.005 112.134 115.299 112.629 115.887C113.124 116.475 113.372 117.318 113.372 118.414V118.902H108.719C108.736 119.579 108.932 120.127 109.309 120.546C109.69 120.961 110.172 121.168 110.756 121.168C111.171 121.168 111.522 121.084 111.81 120.915C112.098 120.745 112.35 120.521 112.565 120.242L113.283 120.8C112.707 121.685 111.844 122.127 110.693 122.127ZM110.547 115.97C110.073 115.97 109.675 116.143 109.354 116.49C109.032 116.833 108.833 117.315 108.757 117.938H112.197V117.849C112.163 117.252 112.003 116.791 111.715 116.465C111.427 116.135 111.038 115.97 110.547 115.97ZM120.538 118.642C120.538 119.687 120.299 120.529 119.821 121.168C119.343 121.807 118.695 122.127 117.878 122.127C117.045 122.127 116.389 121.862 115.911 121.333V124.641H114.736V115.132H115.809L115.866 115.894C116.344 115.301 117.009 115.005 117.859 115.005C118.685 115.005 119.336 115.316 119.814 115.938C120.297 116.56 120.538 117.425 120.538 118.534V118.642ZM119.364 118.509C119.364 117.734 119.199 117.123 118.869 116.674C118.539 116.226 118.086 116.001 117.51 116.001C116.799 116.001 116.266 116.317 115.911 116.947V120.229C116.262 120.855 116.799 121.168 117.523 121.168C118.086 121.168 118.532 120.946 118.862 120.502C119.197 120.053 119.364 119.389 119.364 118.509ZM126.276 122C126.209 121.865 126.154 121.623 126.111 121.276C125.565 121.843 124.914 122.127 124.156 122.127C123.479 122.127 122.923 121.937 122.487 121.556C122.055 121.171 121.839 120.684 121.839 120.096C121.839 119.381 122.11 118.826 122.652 118.433C123.198 118.035 123.964 117.836 124.95 117.836H126.092V117.296C126.092 116.886 125.97 116.56 125.724 116.319C125.479 116.073 125.117 115.951 124.639 115.951C124.22 115.951 123.868 116.056 123.585 116.268C123.301 116.48 123.16 116.736 123.16 117.036H121.979C121.979 116.693 122.1 116.363 122.341 116.046C122.586 115.724 122.916 115.47 123.331 115.284C123.75 115.098 124.209 115.005 124.708 115.005C125.5 115.005 126.12 115.204 126.568 115.602C127.017 115.995 127.25 116.539 127.267 117.233V120.394C127.267 121.025 127.347 121.526 127.508 121.898V122H126.276ZM124.328 121.105C124.696 121.105 125.045 121.01 125.375 120.819C125.705 120.629 125.944 120.381 126.092 120.077V118.667H125.172C123.733 118.667 123.014 119.089 123.014 119.931C123.014 120.299 123.136 120.587 123.382 120.794C123.627 121.001 123.943 121.105 124.328 121.105ZM132.427 116.186C132.25 116.156 132.057 116.141 131.85 116.141C131.079 116.141 130.557 116.469 130.282 117.125V122H129.107V115.132H130.25L130.269 115.925C130.654 115.312 131.2 115.005 131.907 115.005C132.135 115.005 132.309 115.035 132.427 115.094V116.186ZM135.423 113.469V115.132H136.706V116.04H135.423V120.299C135.423 120.574 135.48 120.781 135.595 120.921C135.709 121.056 135.904 121.124 136.179 121.124C136.314 121.124 136.5 121.099 136.737 121.048V122C136.428 122.085 136.128 122.127 135.836 122.127C135.311 122.127 134.916 121.968 134.649 121.651C134.382 121.333 134.249 120.883 134.249 120.299V116.04H132.999V115.132H134.249V113.469H135.423ZM139.188 115.132L139.219 115.894C139.723 115.301 140.402 115.005 141.257 115.005C142.217 115.005 142.871 115.373 143.218 116.109C143.447 115.779 143.743 115.513 144.107 115.31C144.475 115.106 144.909 115.005 145.408 115.005C146.915 115.005 147.681 115.803 147.706 117.398V122H146.532V117.468C146.532 116.977 146.42 116.611 146.195 116.37C145.971 116.124 145.594 116.001 145.065 116.001C144.63 116.001 144.268 116.133 143.98 116.395C143.692 116.653 143.525 117.002 143.479 117.442V122H142.298V117.5C142.298 116.501 141.809 116.001 140.832 116.001C140.061 116.001 139.535 116.329 139.251 116.985V122H138.077V115.132H139.188ZM152.333 122.127C151.403 122.127 150.645 121.822 150.061 121.213C149.477 120.599 149.185 119.78 149.185 118.756V118.541C149.185 117.859 149.314 117.252 149.572 116.719C149.835 116.181 150.199 115.762 150.664 115.462C151.134 115.157 151.642 115.005 152.188 115.005C153.08 115.005 153.774 115.299 154.27 115.887C154.765 116.475 155.012 117.318 155.012 118.414V118.902H150.359C150.376 119.579 150.573 120.127 150.95 120.546C151.331 120.961 151.813 121.168 152.397 121.168C152.812 121.168 153.163 121.084 153.451 120.915C153.738 120.745 153.99 120.521 154.206 120.242L154.923 120.8C154.348 121.685 153.485 122.127 152.333 122.127ZM152.188 115.97C151.714 115.97 151.316 116.143 150.994 116.49C150.673 116.833 150.474 117.315 150.397 117.938H153.838V117.849C153.804 117.252 153.643 116.791 153.355 116.465C153.068 116.135 152.678 115.97 152.188 115.97ZM157.488 115.132L157.526 115.995C158.051 115.335 158.736 115.005 159.583 115.005C161.034 115.005 161.766 115.824 161.779 117.461V122H160.604V117.455C160.6 116.96 160.486 116.594 160.262 116.357C160.042 116.12 159.697 116.001 159.227 116.001C158.846 116.001 158.512 116.103 158.224 116.306C157.936 116.509 157.712 116.776 157.551 117.106V122H156.377V115.132H157.488ZM165.143 113.469V115.132H166.425V116.04H165.143V120.299C165.143 120.574 165.2 120.781 165.314 120.921C165.429 121.056 165.623 121.124 165.898 121.124C166.034 121.124 166.22 121.099 166.457 121.048V122C166.148 122.085 165.848 122.127 165.556 122.127C165.031 122.127 164.635 121.968 164.369 121.651C164.102 121.333 163.969 120.883 163.969 120.299V116.04H162.718V115.132H163.969V113.469H165.143ZM173.205 119.086L173.382 120.305L173.643 119.207L175.471 112.758H176.499L178.283 119.207L178.537 120.324L178.733 119.08L180.168 112.758H181.393L179.152 122H178.042L176.137 115.265L175.991 114.561L175.845 115.265L173.871 122H172.76L170.526 112.758H171.745L173.205 119.086ZM185.214 122.127C184.283 122.127 183.526 121.822 182.942 121.213C182.358 120.599 182.066 119.78 182.066 118.756V118.541C182.066 117.859 182.195 117.252 182.453 116.719C182.715 116.181 183.079 115.762 183.545 115.462C184.015 115.157 184.522 115.005 185.068 115.005C185.961 115.005 186.655 115.299 187.15 115.887C187.646 116.475 187.893 117.318 187.893 118.414V118.902H183.24C183.257 119.579 183.454 120.127 183.831 120.546C184.211 120.961 184.694 121.168 185.278 121.168C185.693 121.168 186.044 121.084 186.332 120.915C186.619 120.745 186.871 120.521 187.087 120.242L187.804 120.8C187.229 121.685 186.365 122.127 185.214 122.127ZM185.068 115.97C184.594 115.97 184.197 116.143 183.875 116.49C183.553 116.833 183.354 117.315 183.278 117.938H186.719V117.849C186.685 117.252 186.524 116.791 186.236 116.465C185.949 116.135 185.559 115.97 185.068 115.97ZM192.108 122.127C191.177 122.127 190.419 121.822 189.835 121.213C189.251 120.599 188.959 119.78 188.959 118.756V118.541C188.959 117.859 189.089 117.252 189.347 116.719C189.609 116.181 189.973 115.762 190.438 115.462C190.908 115.157 191.416 115.005 191.962 115.005C192.855 115.005 193.549 115.299 194.044 115.887C194.539 116.475 194.787 117.318 194.787 118.414V118.902H190.134C190.151 119.579 190.347 120.127 190.724 120.546C191.105 120.961 191.587 121.168 192.171 121.168C192.586 121.168 192.937 121.084 193.225 120.915C193.513 120.745 193.765 120.521 193.98 120.242L194.698 120.8C194.122 121.685 193.259 122.127 192.108 122.127ZM191.962 115.97C191.488 115.97 191.09 116.143 190.769 116.49C190.447 116.833 190.248 117.315 190.172 117.938H193.612V117.849C193.578 117.252 193.418 116.791 193.13 116.465C192.842 116.135 192.453 115.97 191.962 115.97ZM198.068 118.82L197.332 119.588V122H196.158V112.25H197.332V118.147L197.96 117.392L200.1 115.132H201.528L198.855 118.001L201.839 122H200.461L198.068 118.82ZM204.016 122H202.842V112.25H204.016V122ZM208.148 120.28L209.748 115.132H211.005L208.244 123.06C207.816 124.203 207.137 124.774 206.206 124.774L205.984 124.755L205.546 124.672V123.72L205.863 123.746C206.261 123.746 206.57 123.665 206.79 123.504C207.014 123.344 207.198 123.049 207.342 122.622L207.603 121.924L205.152 115.132H206.435L208.148 120.28ZM217.042 112.758L220.063 120.299L223.084 112.758H224.665V122H223.446V118.401L223.561 114.516L220.526 122H219.593L216.565 114.535L216.686 118.401V122H215.467V112.758H217.042ZM229.483 122.127C228.552 122.127 227.794 121.822 227.21 121.213C226.626 120.599 226.334 119.78 226.334 118.756V118.541C226.334 117.859 226.464 117.252 226.722 116.719C226.984 116.181 227.348 115.762 227.813 115.462C228.283 115.157 228.791 115.005 229.337 115.005C230.23 115.005 230.924 115.299 231.419 115.887C231.914 116.475 232.162 117.318 232.162 118.414V118.902H227.509C227.526 119.579 227.722 120.127 228.099 120.546C228.48 120.961 228.962 121.168 229.546 121.168C229.961 121.168 230.312 121.084 230.6 120.915C230.888 120.745 231.14 120.521 231.355 120.242L232.073 120.8C231.497 121.685 230.634 122.127 229.483 122.127ZM229.337 115.97C228.863 115.97 228.465 116.143 228.144 116.49C227.822 116.833 227.623 117.315 227.547 117.938H230.987V117.849C230.953 117.252 230.793 116.791 230.505 116.465C230.217 116.135 229.828 115.97 229.337 115.97ZM236.376 122.127C235.445 122.127 234.688 121.822 234.104 121.213C233.52 120.599 233.228 119.78 233.228 118.756V118.541C233.228 117.859 233.357 117.252 233.615 116.719C233.878 116.181 234.242 115.762 234.707 115.462C235.177 115.157 235.685 115.005 236.23 115.005C237.123 115.005 237.817 115.299 238.312 115.887C238.808 116.475 239.055 117.318 239.055 118.414V118.902H234.402C234.419 119.579 234.616 120.127 234.993 120.546C235.374 120.961 235.856 121.168 236.44 121.168C236.855 121.168 237.206 121.084 237.494 120.915C237.781 120.745 238.033 120.521 238.249 120.242L238.966 120.8C238.391 121.685 237.528 122.127 236.376 122.127ZM236.23 115.97C235.757 115.97 235.359 116.143 235.037 116.49C234.715 116.833 234.517 117.315 234.44 117.938H237.881V117.849C237.847 117.252 237.686 116.791 237.398 116.465C237.111 116.135 236.721 115.97 236.23 115.97ZM242.013 113.469V115.132H243.295V116.04H242.013V120.299C242.013 120.574 242.07 120.781 242.185 120.921C242.299 121.056 242.493 121.124 242.769 121.124C242.904 121.124 243.09 121.099 243.327 121.048V122C243.018 122.085 242.718 122.127 242.426 122.127C241.901 122.127 241.505 121.968 241.239 121.651C240.972 121.333 240.839 120.883 240.839 120.299V116.04H239.588V115.132H240.839V113.469H242.013ZM245.949 122H244.774V115.132H245.949V122ZM244.679 113.31C244.679 113.12 244.736 112.959 244.851 112.828C244.969 112.696 245.143 112.631 245.371 112.631C245.6 112.631 245.773 112.696 245.892 112.828C246.01 112.959 246.069 113.12 246.069 113.31C246.069 113.5 246.01 113.659 245.892 113.786C245.773 113.913 245.6 113.977 245.371 113.977C245.143 113.977 244.969 113.913 244.851 113.786C244.736 113.659 244.679 113.5 244.679 113.31ZM248.945 115.132L248.983 115.995C249.508 115.335 250.193 115.005 251.04 115.005C252.491 115.005 253.223 115.824 253.236 117.461V122H252.062V117.455C252.057 116.96 251.943 116.594 251.719 116.357C251.499 116.12 251.154 116.001 250.684 116.001C250.303 116.001 249.969 116.103 249.681 116.306C249.393 116.509 249.169 116.776 249.008 117.106V122H247.834V115.132H248.945ZM254.728 118.509C254.728 117.438 254.975 116.588 255.47 115.957C255.965 115.322 256.621 115.005 257.438 115.005C258.276 115.005 258.93 115.301 259.399 115.894L259.457 115.132H260.529V121.835C260.529 122.724 260.265 123.424 259.736 123.936C259.211 124.448 258.504 124.704 257.616 124.704C257.121 124.704 256.636 124.598 256.162 124.387C255.688 124.175 255.326 123.885 255.077 123.517L255.686 122.812C256.19 123.435 256.805 123.746 257.533 123.746C258.104 123.746 258.549 123.585 258.866 123.263C259.188 122.942 259.349 122.489 259.349 121.905V121.314C258.879 121.856 258.238 122.127 257.425 122.127C256.621 122.127 255.97 121.803 255.47 121.156C254.975 120.508 254.728 119.626 254.728 118.509ZM255.908 118.642C255.908 119.417 256.067 120.026 256.384 120.47C256.702 120.91 257.146 121.13 257.717 121.13C258.458 121.13 259.002 120.794 259.349 120.121V116.985C258.989 116.329 258.449 116.001 257.73 116.001C257.159 116.001 256.712 116.224 256.391 116.668C256.069 117.112 255.908 117.77 255.908 118.642Z" fill="#333333"/>
<path d="M4.86328 118.25C4.63672 118.52 4.36523 118.736 4.04883 118.9C3.73633 119.064 3.39258 119.146 3.01758 119.146C2.52539 119.146 2.0957 119.025 1.72852 118.783C1.36523 118.541 1.08398 118.201 0.884766 117.764C0.685547 117.322 0.585938 116.836 0.585938 116.305C0.585938 115.734 0.693359 115.221 0.908203 114.764C1.12695 114.307 1.43555 113.957 1.83398 113.715C2.23242 113.473 2.69727 113.352 3.22852 113.352C4.07227 113.352 4.73633 113.668 5.2207 114.301C5.70898 114.93 5.95312 115.789 5.95312 116.879V117.195C5.95312 118.855 5.625 120.068 4.96875 120.834C4.3125 121.596 3.32227 121.986 1.99805 122.006H1.78711V121.092H2.01562C2.91016 121.076 3.59766 120.844 4.07812 120.395C4.55859 119.941 4.82031 119.227 4.86328 118.25ZM3.19336 118.25C3.55664 118.25 3.89062 118.139 4.19531 117.916C4.50391 117.693 4.72852 117.418 4.86914 117.09V116.656C4.86914 115.945 4.71484 115.367 4.40625 114.922C4.09766 114.477 3.70703 114.254 3.23438 114.254C2.75781 114.254 2.375 114.438 2.08594 114.805C1.79688 115.168 1.65234 115.648 1.65234 116.246C1.65234 116.828 1.79102 117.309 2.06836 117.688C2.34961 118.062 2.72461 118.25 3.19336 118.25ZM12.4395 119.773H8.86523L8.0625 122H6.90234L10.1602 113.469H11.1445L14.4082 122H13.2539L12.4395 119.773ZM9.20508 118.848H12.1055L10.6523 114.857L9.20508 118.848ZM17.0098 113.469L19.7988 120.43L22.5879 113.469H24.0469V122H22.9219V118.678L23.0273 115.092L20.2266 122H19.3652L16.5703 115.109L16.6816 118.678V122H15.5566V113.469H17.0098Z" fill="#AEAEAE"/>
<line x1="-1.31134e-08" y1="135.85" x2="345" y2="135.85" stroke="#AEAEAE" stroke-width="0.3"/>
<path d="M83.1821 153.677C83.1821 154.583 83.0298 155.374 82.7251 156.051C82.4204 156.724 81.9888 157.238 81.4302 157.594C80.8716 157.949 80.2199 158.127 79.4751 158.127C78.7472 158.127 78.1019 157.949 77.5391 157.594C76.9762 157.234 76.5382 156.724 76.2251 156.064C75.9162 155.4 75.7575 154.632 75.749 153.76V153.093C75.749 152.205 75.9035 151.42 76.2124 150.738C76.5213 150.057 76.9572 149.536 77.52 149.177C78.0871 148.813 78.7345 148.631 79.4624 148.631C80.203 148.631 80.8547 148.811 81.4175 149.17C81.9845 149.526 82.4204 150.044 82.7251 150.726C83.0298 151.403 83.1821 152.192 83.1821 153.093V153.677ZM81.9697 153.081C81.9697 151.985 81.7497 151.145 81.3096 150.561C80.8695 149.972 80.2537 149.678 79.4624 149.678C78.6922 149.678 78.085 149.972 77.6406 150.561C77.2005 151.145 76.9741 151.957 76.9614 152.998V153.677C76.9614 154.739 77.1836 155.575 77.6279 156.185C78.0765 156.79 78.6922 157.092 79.4751 157.092C80.2622 157.092 80.8716 156.807 81.3032 156.235C81.7349 155.66 81.957 154.837 81.9697 153.766V153.081ZM85.937 151.132L85.9751 151.995C86.4998 151.335 87.1854 151.005 88.0317 151.005C89.4832 151.005 90.2153 151.824 90.228 153.461V158H89.0537V153.455C89.0495 152.96 88.9352 152.594 88.7109 152.357C88.4909 152.12 88.146 152.001 87.6763 152.001C87.2954 152.001 86.9611 152.103 86.6733 152.306C86.3856 152.509 86.1613 152.776 86.0005 153.106V158H84.8262V151.132H85.937ZM94.8491 158.127C93.9181 158.127 93.1606 157.822 92.5767 157.213C91.9927 156.599 91.7007 155.78 91.7007 154.756V154.541C91.7007 153.859 91.8298 153.252 92.0879 152.719C92.3503 152.181 92.7142 151.762 93.1797 151.462C93.6494 151.157 94.1572 151.005 94.7031 151.005C95.596 151.005 96.29 151.299 96.7852 151.887C97.2803 152.475 97.5278 153.318 97.5278 154.414V154.902H92.875C92.8919 155.579 93.0887 156.127 93.4653 156.546C93.8462 156.961 94.3286 157.168 94.9126 157.168C95.3273 157.168 95.6785 157.084 95.9663 156.915C96.2541 156.745 96.5059 156.521 96.7217 156.242L97.439 156.8C96.8634 157.685 96.0002 158.127 94.8491 158.127ZM94.7031 151.97C94.2292 151.97 93.8314 152.143 93.5098 152.49C93.1882 152.833 92.9893 153.315 92.9131 153.938H96.3535V153.849C96.3197 153.252 96.1589 152.791 95.8711 152.465C95.5833 152.135 95.194 151.97 94.7031 151.97ZM101.806 154.502C101.806 153.83 101.937 153.224 102.2 152.687C102.466 152.15 102.834 151.735 103.304 151.443C103.778 151.151 104.318 151.005 104.923 151.005C105.858 151.005 106.613 151.329 107.189 151.976C107.769 152.624 108.059 153.485 108.059 154.56V154.642C108.059 155.311 107.93 155.912 107.671 156.445C107.417 156.974 107.051 157.386 106.573 157.683C106.099 157.979 105.553 158.127 104.936 158.127C104.005 158.127 103.249 157.803 102.669 157.156C102.094 156.508 101.806 155.651 101.806 154.585V154.502ZM102.987 154.642C102.987 155.404 103.162 156.015 103.514 156.477C103.869 156.938 104.343 157.168 104.936 157.168C105.532 157.168 106.006 156.936 106.357 156.47C106.709 156 106.884 155.345 106.884 154.502C106.884 153.749 106.704 153.14 106.345 152.674C105.989 152.205 105.515 151.97 104.923 151.97C104.343 151.97 103.875 152.2 103.52 152.662C103.165 153.123 102.987 153.783 102.987 154.642ZM110.642 151.132L110.68 151.995C111.205 151.335 111.89 151.005 112.737 151.005C114.188 151.005 114.92 151.824 114.933 153.461V158H113.759V153.455C113.755 152.96 113.64 152.594 113.416 152.357C113.196 152.12 112.851 152.001 112.381 152.001C112 152.001 111.666 152.103 111.378 152.306C111.091 152.509 110.866 152.776 110.706 153.106V158H109.531V151.132H110.642ZM119.618 154.502C119.618 153.83 119.749 153.224 120.011 152.687C120.278 152.15 120.646 151.735 121.116 151.443C121.59 151.151 122.129 151.005 122.734 151.005C123.67 151.005 124.425 151.329 125 151.976C125.58 152.624 125.87 153.485 125.87 154.56V154.642C125.87 155.311 125.741 155.912 125.483 156.445C125.229 156.974 124.863 157.386 124.385 157.683C123.911 157.979 123.365 158.127 122.747 158.127C121.816 158.127 121.061 157.803 120.481 157.156C119.905 156.508 119.618 155.651 119.618 154.585V154.502ZM120.798 154.642C120.798 155.404 120.974 156.015 121.325 156.477C121.681 156.938 122.155 157.168 122.747 157.168C123.344 157.168 123.818 156.936 124.169 156.47C124.52 156 124.696 155.345 124.696 154.502C124.696 153.749 124.516 153.14 124.156 152.674C123.801 152.205 123.327 151.97 122.734 151.97C122.155 151.97 121.687 152.2 121.332 152.662C120.976 153.123 120.798 153.783 120.798 154.642ZM128.454 151.132L128.492 151.995C129.016 151.335 129.702 151.005 130.548 151.005C132 151.005 132.732 151.824 132.745 153.461V158H131.57V153.455C131.566 152.96 131.452 152.594 131.228 152.357C131.007 152.12 130.663 152.001 130.193 152.001C129.812 152.001 129.478 152.103 129.19 152.306C128.902 152.509 128.678 152.776 128.517 153.106V158H127.343V151.132H128.454ZM137.366 158.127C136.435 158.127 135.677 157.822 135.093 157.213C134.509 156.599 134.217 155.78 134.217 154.756V154.541C134.217 153.859 134.346 153.252 134.604 152.719C134.867 152.181 135.231 151.762 135.696 151.462C136.166 151.157 136.674 151.005 137.22 151.005C138.113 151.005 138.807 151.299 139.302 151.887C139.797 152.475 140.044 153.318 140.044 154.414V154.902H135.392C135.409 155.579 135.605 156.127 135.982 156.546C136.363 156.961 136.845 157.168 137.429 157.168C137.844 157.168 138.195 157.084 138.483 156.915C138.771 156.745 139.022 156.521 139.238 156.242L139.956 156.8C139.38 157.685 138.517 158.127 137.366 158.127ZM137.22 151.97C136.746 151.97 136.348 152.143 136.026 152.49C135.705 152.833 135.506 153.315 135.43 153.938H138.87V153.849C138.836 153.252 138.675 152.791 138.388 152.465C138.1 152.135 137.711 151.97 137.22 151.97ZM145.738 151.132L145.77 151.894C146.274 151.301 146.953 151.005 147.808 151.005C148.768 151.005 149.422 151.373 149.769 152.109C149.998 151.779 150.294 151.513 150.658 151.31C151.026 151.106 151.46 151.005 151.959 151.005C153.465 151.005 154.231 151.803 154.257 153.398V158H153.083V153.468C153.083 152.977 152.97 152.611 152.746 152.37C152.522 152.124 152.145 152.001 151.616 152.001C151.18 152.001 150.819 152.133 150.531 152.395C150.243 152.653 150.076 153.002 150.029 153.442V158H148.849V153.5C148.849 152.501 148.36 152.001 147.382 152.001C146.612 152.001 146.085 152.329 145.802 152.985V158H144.627V151.132H145.738ZM158.884 158.127C157.953 158.127 157.196 157.822 156.612 157.213C156.028 156.599 155.736 155.78 155.736 154.756V154.541C155.736 153.859 155.865 153.252 156.123 152.719C156.385 152.181 156.749 151.762 157.215 151.462C157.685 151.157 158.192 151.005 158.738 151.005C159.631 151.005 160.325 151.299 160.82 151.887C161.315 152.475 161.563 153.318 161.563 154.414V154.902H156.91C156.927 155.579 157.124 156.127 157.5 156.546C157.881 156.961 158.364 157.168 158.948 157.168C159.362 157.168 159.714 157.084 160.001 156.915C160.289 156.745 160.541 156.521 160.757 156.242L161.474 156.8C160.899 157.685 160.035 158.127 158.884 158.127ZM158.738 151.97C158.264 151.97 157.867 152.143 157.545 152.49C157.223 152.833 157.024 153.315 156.948 153.938H160.389V153.849C160.355 153.252 160.194 152.791 159.906 152.465C159.618 152.135 159.229 151.97 158.738 151.97ZM165.778 158.127C164.847 158.127 164.089 157.822 163.505 157.213C162.921 156.599 162.629 155.78 162.629 154.756V154.541C162.629 153.859 162.758 153.252 163.017 152.719C163.279 152.181 163.643 151.762 164.108 151.462C164.578 151.157 165.086 151.005 165.632 151.005C166.525 151.005 167.219 151.299 167.714 151.887C168.209 152.475 168.457 153.318 168.457 154.414V154.902H163.804C163.821 155.579 164.017 156.127 164.394 156.546C164.775 156.961 165.257 157.168 165.841 157.168C166.256 157.168 166.607 157.084 166.895 156.915C167.183 156.745 167.435 156.521 167.65 156.242L168.368 156.8C167.792 157.685 166.929 158.127 165.778 158.127ZM165.632 151.97C165.158 151.97 164.76 152.143 164.438 152.49C164.117 152.833 163.918 153.315 163.842 153.938H167.282V153.849C167.248 153.252 167.088 152.791 166.8 152.465C166.512 152.135 166.123 151.97 165.632 151.97ZM171.415 149.469V151.132H172.697V152.04H171.415V156.299C171.415 156.574 171.472 156.781 171.586 156.921C171.7 157.056 171.895 157.124 172.17 157.124C172.305 157.124 172.492 157.099 172.729 157.048V158C172.42 158.085 172.119 158.127 171.827 158.127C171.302 158.127 170.907 157.968 170.64 157.651C170.374 157.333 170.24 156.883 170.24 156.299V152.04H168.99V151.132H170.24V149.469H171.415ZM175.35 158H174.176V151.132H175.35V158ZM174.081 149.31C174.081 149.12 174.138 148.959 174.252 148.828C174.37 148.696 174.544 148.631 174.772 148.631C175.001 148.631 175.174 148.696 175.293 148.828C175.411 148.959 175.471 149.12 175.471 149.31C175.471 149.5 175.411 149.659 175.293 149.786C175.174 149.913 175.001 149.977 174.772 149.977C174.544 149.977 174.37 149.913 174.252 149.786C174.138 149.659 174.081 149.5 174.081 149.31ZM178.346 151.132L178.384 151.995C178.909 151.335 179.595 151.005 180.441 151.005C181.892 151.005 182.625 151.824 182.637 153.461V158H181.463V153.455C181.459 152.96 181.344 152.594 181.12 152.357C180.9 152.12 180.555 152.001 180.085 152.001C179.705 152.001 179.37 152.103 179.083 152.306C178.795 152.509 178.57 152.776 178.41 153.106V158H177.235V151.132H178.346ZM184.129 154.509C184.129 153.438 184.376 152.588 184.872 151.957C185.367 151.322 186.023 151.005 186.839 151.005C187.677 151.005 188.331 151.301 188.801 151.894L188.858 151.132H189.931V157.835C189.931 158.724 189.666 159.424 189.137 159.936C188.612 160.448 187.906 160.704 187.017 160.704C186.522 160.704 186.037 160.598 185.563 160.387C185.09 160.175 184.728 159.885 184.478 159.517L185.087 158.812C185.591 159.435 186.207 159.746 186.935 159.746C187.506 159.746 187.95 159.585 188.268 159.263C188.589 158.942 188.75 158.489 188.75 157.905V157.314C188.28 157.856 187.639 158.127 186.827 158.127C186.023 158.127 185.371 157.803 184.872 157.156C184.376 156.508 184.129 155.626 184.129 154.509ZM185.31 154.642C185.31 155.417 185.468 156.026 185.786 156.47C186.103 156.91 186.547 157.13 187.119 157.13C187.859 157.13 188.403 156.794 188.75 156.121V152.985C188.39 152.329 187.851 152.001 187.131 152.001C186.56 152.001 186.114 152.224 185.792 152.668C185.47 153.112 185.31 153.77 185.31 154.642ZM201.014 156.381L202.334 151.132H203.508L201.509 158H200.557L198.887 152.795L197.262 158H196.31L194.317 151.132H195.485L196.837 156.273L198.437 151.132H199.382L201.014 156.381ZM205.984 158H204.81V151.132H205.984V158ZM204.714 149.31C204.714 149.12 204.771 148.959 204.886 148.828C205.004 148.696 205.178 148.631 205.406 148.631C205.635 148.631 205.808 148.696 205.927 148.828C206.045 148.959 206.104 149.12 206.104 149.31C206.104 149.5 206.045 149.659 205.927 149.786C205.808 149.913 205.635 149.977 205.406 149.977C205.178 149.977 205.004 149.913 204.886 149.786C204.771 149.659 204.714 149.5 204.714 149.31ZM209.462 149.469V151.132H210.745V152.04H209.462V156.299C209.462 156.574 209.52 156.781 209.634 156.921C209.748 157.056 209.943 157.124 210.218 157.124C210.353 157.124 210.539 157.099 210.776 157.048V158C210.467 158.085 210.167 158.127 209.875 158.127C209.35 158.127 208.955 157.968 208.688 157.651C208.421 157.333 208.288 156.883 208.288 156.299V152.04H207.038V151.132H208.288V149.469H209.462ZM213.296 151.963C213.817 151.324 214.494 151.005 215.328 151.005C216.779 151.005 217.511 151.824 217.524 153.461V158H216.35V153.455C216.345 152.96 216.231 152.594 216.007 152.357C215.787 152.12 215.442 152.001 214.972 152.001C214.591 152.001 214.257 152.103 213.969 152.306C213.681 152.509 213.457 152.776 213.296 153.106V158H212.122V148.25H213.296V151.963ZM229.794 158H228.569V153.728H223.91V158H222.691V148.758H223.91V152.731H228.569V148.758H229.794V158ZM233.05 158H231.876V151.132H233.05V158ZM231.781 149.31C231.781 149.12 231.838 148.959 231.952 148.828C232.071 148.696 232.244 148.631 232.473 148.631C232.701 148.631 232.875 148.696 232.993 148.828C233.112 148.959 233.171 149.12 233.171 149.31C233.171 149.5 233.112 149.659 232.993 149.786C232.875 149.913 232.701 149.977 232.473 149.977C232.244 149.977 232.071 149.913 231.952 149.786C231.838 149.659 231.781 149.5 231.781 149.31ZM236.046 151.132L236.084 151.995C236.609 151.335 237.295 151.005 238.141 151.005C239.593 151.005 240.325 151.824 240.337 153.461V158H239.163V153.455C239.159 152.96 239.045 152.594 238.82 152.357C238.6 152.12 238.255 152.001 237.786 152.001C237.405 152.001 237.07 152.103 236.783 152.306C236.495 152.509 236.271 152.776 236.11 153.106V158H234.936V151.132H236.046ZM244.025 154.82L243.289 155.588V158H242.115V148.25H243.289V154.147L243.917 153.392L246.057 151.132H247.485L244.812 154.001L247.796 158H246.418L244.025 154.82ZM252.938 158C252.87 157.865 252.815 157.623 252.772 157.276C252.227 157.843 251.575 158.127 250.817 158.127C250.14 158.127 249.584 157.937 249.148 157.556C248.716 157.171 248.5 156.684 248.5 156.096C248.5 155.381 248.771 154.826 249.313 154.433C249.859 154.035 250.625 153.836 251.611 153.836H252.753V153.296C252.753 152.886 252.631 152.56 252.385 152.319C252.14 152.073 251.778 151.951 251.3 151.951C250.881 151.951 250.53 152.056 250.246 152.268C249.963 152.48 249.821 152.736 249.821 153.036H248.64C248.64 152.693 248.761 152.363 249.002 152.046C249.247 151.724 249.577 151.47 249.992 151.284C250.411 151.098 250.87 151.005 251.37 151.005C252.161 151.005 252.781 151.204 253.229 151.602C253.678 151.995 253.911 152.539 253.928 153.233V156.394C253.928 157.025 254.008 157.526 254.169 157.898V158H252.938ZM250.989 157.105C251.357 157.105 251.706 157.01 252.036 156.819C252.366 156.629 252.605 156.381 252.753 156.077V154.667H251.833C250.394 154.667 249.675 155.089 249.675 155.931C249.675 156.299 249.798 156.587 250.043 156.794C250.288 157.001 250.604 157.105 250.989 157.105ZM260.396 154.382V158H259.177V148.758H262.586C263.597 148.758 264.389 149.016 264.96 149.532C265.535 150.049 265.823 150.732 265.823 151.583C265.823 152.48 265.542 153.172 264.979 153.658C264.42 154.141 263.618 154.382 262.573 154.382H260.396ZM260.396 153.385H262.586C263.238 153.385 263.737 153.233 264.084 152.928C264.431 152.619 264.604 152.175 264.604 151.595C264.604 151.045 264.431 150.605 264.084 150.275C263.737 149.945 263.261 149.773 262.656 149.761H260.396V153.385ZM271.358 158C271.291 157.865 271.236 157.623 271.193 157.276C270.647 157.843 269.996 158.127 269.238 158.127C268.561 158.127 268.005 157.937 267.569 157.556C267.137 157.171 266.921 156.684 266.921 156.096C266.921 155.381 267.192 154.826 267.734 154.433C268.28 154.035 269.046 153.836 270.032 153.836H271.174V153.296C271.174 152.886 271.052 152.56 270.806 152.319C270.561 152.073 270.199 151.951 269.721 151.951C269.302 151.951 268.951 152.056 268.667 152.268C268.383 152.48 268.242 152.736 268.242 153.036H267.061C267.061 152.693 267.182 152.363 267.423 152.046C267.668 151.724 267.998 151.47 268.413 151.284C268.832 151.098 269.291 151.005 269.791 151.005C270.582 151.005 271.202 151.204 271.65 151.602C272.099 151.995 272.332 152.539 272.349 153.233V156.394C272.349 157.025 272.429 157.526 272.59 157.898V158H271.358ZM269.41 157.105C269.778 157.105 270.127 157.01 270.457 156.819C270.787 156.629 271.026 156.381 271.174 156.077V154.667H270.254C268.815 154.667 268.096 155.089 268.096 155.931C268.096 156.299 268.218 156.587 268.464 156.794C268.709 157.001 269.025 157.105 269.41 157.105ZM275.783 149.469V151.132H277.065V152.04H275.783V156.299C275.783 156.574 275.84 156.781 275.954 156.921C276.068 157.056 276.263 157.124 276.538 157.124C276.674 157.124 276.86 157.099 277.097 157.048V158C276.788 158.085 276.487 158.127 276.195 158.127C275.671 158.127 275.275 157.968 275.008 157.651C274.742 157.333 274.608 156.883 274.608 156.299V152.04H273.358V151.132H274.608V149.469H275.783ZM281.292 158.127C280.361 158.127 279.604 157.822 279.02 157.213C278.436 156.599 278.144 155.78 278.144 154.756V154.541C278.144 153.859 278.273 153.252 278.531 152.719C278.794 152.181 279.158 151.762 279.623 151.462C280.093 151.157 280.601 151.005 281.146 151.005C282.039 151.005 282.733 151.299 283.229 151.887C283.724 152.475 283.971 153.318 283.971 154.414V154.902H279.318C279.335 155.579 279.532 156.127 279.909 156.546C280.29 156.961 280.772 157.168 281.356 157.168C281.771 157.168 282.122 157.084 282.41 156.915C282.697 156.745 282.949 156.521 283.165 156.242L283.882 156.8C283.307 157.685 282.444 158.127 281.292 158.127ZM281.146 151.97C280.673 151.97 280.275 152.143 279.953 152.49C279.632 152.833 279.433 153.315 279.356 153.938H282.797V153.849C282.763 153.252 282.602 152.791 282.314 152.465C282.027 152.135 281.637 151.97 281.146 151.97ZM286.612 158H285.438V148.25H286.612V158Z" fill="#333333"/>
<path d="M6.29883 158H0.708984V157.221L3.66211 153.939C4.09961 153.443 4.40039 153.041 4.56445 152.732C4.73242 152.42 4.81641 152.098 4.81641 151.766C4.81641 151.32 4.68164 150.955 4.41211 150.67C4.14258 150.385 3.7832 150.242 3.33398 150.242C2.79492 150.242 2.375 150.396 2.07422 150.705C1.77734 151.01 1.62891 151.436 1.62891 151.982H0.544922C0.544922 151.197 0.796875 150.562 1.30078 150.078C1.80859 149.594 2.48633 149.352 3.33398 149.352C4.12695 149.352 4.75391 149.561 5.21484 149.979C5.67578 150.393 5.90625 150.945 5.90625 151.637C5.90625 152.477 5.37109 153.477 4.30078 154.637L2.01562 157.115H6.29883V158ZM8.85352 154.66V158H7.72852V149.469H10.875C11.8086 149.469 12.5391 149.707 13.0664 150.184C13.5977 150.66 13.8633 151.291 13.8633 152.076C13.8633 152.904 13.6035 153.543 13.084 153.992C12.5684 154.438 11.8281 154.66 10.8633 154.66H8.85352ZM8.85352 153.74H10.875C11.4766 153.74 11.9375 153.6 12.2578 153.318C12.5781 153.033 12.7383 152.623 12.7383 152.088C12.7383 151.58 12.5781 151.174 12.2578 150.869C11.9375 150.564 11.498 150.406 10.9395 150.395H8.85352V153.74ZM16.752 149.469L19.541 156.43L22.3301 149.469H23.7891V158H22.6641V154.678L22.7695 151.092L19.9688 158H19.1074L16.3125 151.109L16.4238 154.678V158H15.2988V149.469H16.752Z" fill="#AEAEAE"/>
<line x1="-1.31134e-08" y1="171.85" x2="345" y2="171.85" stroke="#AEAEAE" stroke-width="0.3"/>
<path d="M82.4585 185.761H79.4878V194H78.2754V185.761H75.311V184.758H82.4585V185.761ZM87.1621 194C87.0944 193.865 87.0394 193.623 86.9971 193.276C86.4512 193.843 85.7995 194.127 85.042 194.127C84.3649 194.127 83.8084 193.937 83.3726 193.556C82.9409 193.171 82.7251 192.684 82.7251 192.096C82.7251 191.381 82.9959 190.826 83.5376 190.433C84.0835 190.035 84.8494 189.836 85.8354 189.836H86.978V189.296C86.978 188.886 86.8553 188.56 86.6099 188.319C86.3644 188.073 86.0026 187.951 85.5244 187.951C85.1055 187.951 84.7542 188.056 84.4707 188.268C84.1872 188.48 84.0454 188.736 84.0454 189.036H82.8647C82.8647 188.693 82.9854 188.363 83.2266 188.046C83.472 187.724 83.8021 187.47 84.2168 187.284C84.6357 187.098 85.0949 187.005 85.5942 187.005C86.3856 187.005 87.0055 187.204 87.4541 187.602C87.9027 187.995 88.1354 188.539 88.1523 189.233V192.394C88.1523 193.025 88.2327 193.526 88.3936 193.898V194H87.1621ZM85.2134 193.105C85.5815 193.105 85.9307 193.01 86.2607 192.819C86.5908 192.629 86.8299 192.381 86.978 192.077V190.667H86.0576C84.6188 190.667 83.8994 191.089 83.8994 191.931C83.8994 192.299 84.0221 192.587 84.2676 192.794C84.513 193.001 84.8283 193.105 85.2134 193.105ZM93.9922 192.178C93.9922 191.861 93.8716 191.615 93.6304 191.442C93.3934 191.264 92.9766 191.112 92.3799 190.985C91.7874 190.858 91.3156 190.706 90.9644 190.528C90.6174 190.35 90.3592 190.139 90.1899 189.893C90.0249 189.648 89.9424 189.356 89.9424 189.017C89.9424 188.454 90.1794 187.978 90.6533 187.589C91.1315 187.2 91.7409 187.005 92.4814 187.005C93.2601 187.005 93.8906 187.206 94.373 187.608C94.8597 188.01 95.103 188.524 95.103 189.15H93.9224C93.9224 188.829 93.7848 188.552 93.5098 188.319C93.2389 188.086 92.8962 187.97 92.4814 187.97C92.054 187.97 91.7197 188.063 91.4785 188.249C91.2373 188.435 91.1167 188.679 91.1167 188.979C91.1167 189.263 91.2288 189.476 91.4531 189.62C91.6774 189.764 92.0815 189.902 92.6655 190.033C93.2537 190.164 93.7298 190.32 94.0938 190.502C94.4577 190.684 94.7264 190.904 94.8999 191.163C95.0776 191.417 95.1665 191.728 95.1665 192.096C95.1665 192.709 94.9211 193.202 94.4302 193.575C93.9393 193.943 93.3024 194.127 92.5195 194.127C91.9694 194.127 91.4827 194.03 91.0596 193.835C90.6364 193.64 90.3042 193.369 90.063 193.022C89.826 192.671 89.7075 192.292 89.7075 191.886H90.8818C90.903 192.28 91.0596 192.593 91.3516 192.826C91.6478 193.054 92.0371 193.168 92.5195 193.168C92.9639 193.168 93.3193 193.08 93.5859 192.902C93.8568 192.72 93.9922 192.479 93.9922 192.178ZM98.6133 190.82L97.877 191.588V194H96.7026V184.25H97.877V190.147L98.5054 189.392L100.645 187.132H102.073L99.4004 190.001L102.384 194H101.006L98.6133 190.82ZM107.284 192.178C107.284 191.861 107.164 191.615 106.922 191.442C106.685 191.264 106.269 191.112 105.672 190.985C105.079 190.858 104.608 190.706 104.256 190.528C103.909 190.35 103.651 190.139 103.482 189.893C103.317 189.648 103.234 189.356 103.234 189.017C103.234 188.454 103.471 187.978 103.945 187.589C104.424 187.2 105.033 187.005 105.773 187.005C106.552 187.005 107.183 187.206 107.665 187.608C108.152 188.01 108.395 188.524 108.395 189.15H107.214C107.214 188.829 107.077 188.552 106.802 188.319C106.531 188.086 106.188 187.97 105.773 187.97C105.346 187.97 105.012 188.063 104.771 188.249C104.529 188.435 104.409 188.679 104.409 188.979C104.409 189.263 104.521 189.476 104.745 189.62C104.969 189.764 105.374 189.902 105.958 190.033C106.546 190.164 107.022 190.32 107.386 190.502C107.75 190.684 108.018 190.904 108.192 191.163C108.37 191.417 108.458 191.728 108.458 192.096C108.458 192.709 108.213 193.202 107.722 193.575C107.231 193.943 106.594 194.127 105.812 194.127C105.261 194.127 104.775 194.03 104.352 193.835C103.928 193.64 103.596 193.369 103.355 193.022C103.118 192.671 103 192.292 103 191.886H104.174C104.195 192.28 104.352 192.593 104.644 192.826C104.94 193.054 105.329 193.168 105.812 193.168C106.256 193.168 106.611 193.08 106.878 192.902C107.149 192.72 107.284 192.479 107.284 192.178ZM114.387 187.963C114.908 187.324 115.585 187.005 116.418 187.005C117.87 187.005 118.602 187.824 118.615 189.461V194H117.44V189.455C117.436 188.96 117.322 188.594 117.098 188.357C116.878 188.12 116.533 188.001 116.063 188.001C115.682 188.001 115.348 188.103 115.06 188.306C114.772 188.509 114.548 188.776 114.387 189.106V194H113.213V184.25H114.387V187.963ZM124.613 194C124.546 193.865 124.491 193.623 124.448 193.276C123.902 193.843 123.251 194.127 122.493 194.127C121.816 194.127 121.26 193.937 120.824 193.556C120.392 193.171 120.176 192.684 120.176 192.096C120.176 191.381 120.447 190.826 120.989 190.433C121.535 190.035 122.301 189.836 123.287 189.836H124.429V189.296C124.429 188.886 124.306 188.56 124.061 188.319C123.816 188.073 123.454 187.951 122.976 187.951C122.557 187.951 122.205 188.056 121.922 188.268C121.638 188.48 121.497 188.736 121.497 189.036H120.316C120.316 188.693 120.437 188.363 120.678 188.046C120.923 187.724 121.253 187.47 121.668 187.284C122.087 187.098 122.546 187.005 123.045 187.005C123.837 187.005 124.457 187.204 124.905 187.602C125.354 187.995 125.587 188.539 125.604 189.233V192.394C125.604 193.025 125.684 193.526 125.845 193.898V194H124.613ZM122.665 193.105C123.033 193.105 123.382 193.01 123.712 192.819C124.042 192.629 124.281 192.381 124.429 192.077V190.667H123.509C122.07 190.667 121.351 191.089 121.351 191.931C121.351 192.299 121.473 192.587 121.719 192.794C121.964 193.001 122.279 193.105 122.665 193.105ZM128.555 187.132L128.593 187.995C129.118 187.335 129.804 187.005 130.65 187.005C132.101 187.005 132.833 187.824 132.846 189.461V194H131.672V189.455C131.668 188.96 131.553 188.594 131.329 188.357C131.109 188.12 130.764 188.001 130.294 188.001C129.914 188.001 129.579 188.103 129.292 188.306C129.004 188.509 128.779 188.776 128.619 189.106V194H127.444V187.132H128.555ZM134.332 190.509C134.332 189.455 134.581 188.609 135.081 187.97C135.58 187.326 136.234 187.005 137.042 187.005C137.846 187.005 138.483 187.28 138.953 187.83V184.25H140.127V194H139.048L138.991 193.264C138.521 193.839 137.867 194.127 137.029 194.127C136.234 194.127 135.584 193.801 135.081 193.149C134.581 192.498 134.332 191.647 134.332 190.598V190.509ZM135.506 190.642C135.506 191.421 135.667 192.03 135.988 192.47C136.31 192.91 136.754 193.13 137.321 193.13C138.066 193.13 138.61 192.796 138.953 192.127V188.973C138.601 188.325 138.062 188.001 137.334 188.001C136.758 188.001 136.31 188.224 135.988 188.668C135.667 189.112 135.506 189.77 135.506 190.642ZM141.644 190.502C141.644 189.83 141.775 189.224 142.038 188.687C142.304 188.15 142.672 187.735 143.142 187.443C143.616 187.151 144.156 187.005 144.761 187.005C145.696 187.005 146.451 187.329 147.027 187.976C147.607 188.624 147.896 189.485 147.896 190.56V190.642C147.896 191.311 147.767 191.912 147.509 192.445C147.255 192.974 146.889 193.386 146.411 193.683C145.937 193.979 145.391 194.127 144.773 194.127C143.842 194.127 143.087 193.803 142.507 193.156C141.932 192.508 141.644 191.651 141.644 190.585V190.502ZM142.825 190.642C142.825 191.404 143 192.015 143.352 192.477C143.707 192.938 144.181 193.168 144.773 193.168C145.37 193.168 145.844 192.936 146.195 192.47C146.547 192 146.722 191.345 146.722 190.502C146.722 189.749 146.542 189.14 146.183 188.674C145.827 188.205 145.353 187.97 144.761 187.97C144.181 187.97 143.713 188.2 143.358 188.662C143.002 189.123 142.825 189.783 142.825 190.642ZM149.947 194V188.04H148.861V187.132H149.947V186.427C149.947 185.691 150.144 185.122 150.537 184.72C150.931 184.318 151.487 184.117 152.207 184.117C152.477 184.117 152.746 184.153 153.013 184.225L152.949 185.177C152.75 185.139 152.539 185.12 152.314 185.12C151.934 185.12 151.639 185.232 151.432 185.456C151.225 185.676 151.121 185.993 151.121 186.408V187.132H152.587V188.04H151.121V194H149.947ZM154.466 194V188.04H153.381V187.132H154.466V186.427C154.466 185.691 154.663 185.122 155.057 184.72C155.45 184.318 156.007 184.117 156.726 184.117C156.997 184.117 157.266 184.153 157.532 184.225L157.469 185.177C157.27 185.139 157.058 185.12 156.834 185.12C156.453 185.12 156.159 185.232 155.952 185.456C155.744 185.676 155.641 185.993 155.641 186.408V187.132H157.107V188.04H155.641V194H154.466ZM163.226 185.469V187.132H164.508V188.04H163.226V192.299C163.226 192.574 163.283 192.781 163.397 192.921C163.512 193.056 163.706 193.124 163.981 193.124C164.117 193.124 164.303 193.099 164.54 193.048V194C164.231 194.085 163.931 194.127 163.639 194.127C163.114 194.127 162.718 193.968 162.452 193.651C162.185 193.333 162.052 192.883 162.052 192.299V188.04H160.801V187.132H162.052V185.469H163.226ZM165.448 190.502C165.448 189.83 165.579 189.224 165.841 188.687C166.108 188.15 166.476 187.735 166.946 187.443C167.42 187.151 167.959 187.005 168.564 187.005C169.5 187.005 170.255 187.329 170.831 187.976C171.41 188.624 171.7 189.485 171.7 190.56V190.642C171.7 191.311 171.571 191.912 171.313 192.445C171.059 192.974 170.693 193.386 170.215 193.683C169.741 193.979 169.195 194.127 168.577 194.127C167.646 194.127 166.891 193.803 166.311 193.156C165.736 192.508 165.448 191.651 165.448 190.585V190.502ZM166.628 190.642C166.628 191.404 166.804 192.015 167.155 192.477C167.511 192.938 167.985 193.168 168.577 193.168C169.174 193.168 169.648 192.936 169.999 192.47C170.35 192 170.526 191.345 170.526 190.502C170.526 189.749 170.346 189.14 169.986 188.674C169.631 188.205 169.157 187.97 168.564 187.97C167.985 187.97 167.517 188.2 167.162 188.662C166.806 189.123 166.628 189.783 166.628 190.642ZM181.679 189.918H177.8V194H176.582V184.758H182.307V185.761H177.8V188.922H181.679V189.918ZM184.859 194H183.685V187.132H184.859V194ZM183.589 185.31C183.589 185.12 183.646 184.959 183.761 184.828C183.879 184.696 184.053 184.631 184.281 184.631C184.51 184.631 184.683 184.696 184.802 184.828C184.92 184.959 184.979 185.12 184.979 185.31C184.979 185.5 184.92 185.659 184.802 185.786C184.683 185.913 184.51 185.977 184.281 185.977C184.053 185.977 183.879 185.913 183.761 185.786C183.646 185.659 183.589 185.5 183.589 185.31ZM187.855 187.132L187.893 187.995C188.418 187.335 189.103 187.005 189.95 187.005C191.401 187.005 192.133 187.824 192.146 189.461V194H190.972V189.455C190.967 188.96 190.853 188.594 190.629 188.357C190.409 188.12 190.064 188.001 189.594 188.001C189.213 188.001 188.879 188.103 188.591 188.306C188.304 188.509 188.079 188.776 187.918 189.106V194H186.744V187.132H187.855ZM198.157 194C198.09 193.865 198.035 193.623 197.992 193.276C197.446 193.843 196.795 194.127 196.037 194.127C195.36 194.127 194.804 193.937 194.368 193.556C193.936 193.171 193.72 192.684 193.72 192.096C193.72 191.381 193.991 190.826 194.533 190.433C195.079 190.035 195.845 189.836 196.831 189.836H197.973V189.296C197.973 188.886 197.85 188.56 197.605 188.319C197.36 188.073 196.998 187.951 196.52 187.951C196.101 187.951 195.749 188.056 195.466 188.268C195.182 188.48 195.041 188.736 195.041 189.036H193.86C193.86 188.693 193.98 188.363 194.222 188.046C194.467 187.724 194.797 187.47 195.212 187.284C195.631 187.098 196.09 187.005 196.589 187.005C197.381 187.005 198.001 187.204 198.449 187.602C198.898 187.995 199.131 188.539 199.147 189.233V192.394C199.147 193.025 199.228 193.526 199.389 193.898V194H198.157ZM196.208 193.105C196.577 193.105 196.926 193.01 197.256 192.819C197.586 192.629 197.825 192.381 197.973 192.077V190.667H197.053C195.614 190.667 194.895 191.089 194.895 191.931C194.895 192.299 195.017 192.587 195.263 192.794C195.508 193.001 195.823 193.105 196.208 193.105ZM202.099 187.132L202.137 187.995C202.662 187.335 203.347 187.005 204.194 187.005C205.645 187.005 206.377 187.824 206.39 189.461V194H205.216V189.455C205.212 188.96 205.097 188.594 204.873 188.357C204.653 188.12 204.308 188.001 203.838 188.001C203.458 188.001 203.123 188.103 202.835 188.306C202.548 188.509 202.323 188.776 202.163 189.106V194H200.988V187.132H202.099ZM210.916 193.168C211.335 193.168 211.701 193.042 212.014 192.788C212.327 192.534 212.501 192.216 212.535 191.835H213.646C213.624 192.229 213.489 192.604 213.239 192.959C212.99 193.314 212.655 193.598 212.236 193.81C211.822 194.021 211.382 194.127 210.916 194.127C209.981 194.127 209.236 193.816 208.682 193.194C208.132 192.568 207.856 191.713 207.856 190.629V190.433C207.856 189.764 207.979 189.169 208.225 188.649C208.47 188.128 208.821 187.724 209.278 187.437C209.74 187.149 210.283 187.005 210.91 187.005C211.68 187.005 212.319 187.236 212.827 187.697C213.339 188.158 213.612 188.757 213.646 189.493H212.535C212.501 189.049 212.332 188.685 212.027 188.401C211.726 188.114 211.354 187.97 210.91 187.97C210.313 187.97 209.85 188.186 209.52 188.617C209.194 189.045 209.031 189.665 209.031 190.477V190.699C209.031 191.491 209.194 192.1 209.52 192.527C209.845 192.955 210.311 193.168 210.916 193.168ZM217.816 194.127C216.885 194.127 216.127 193.822 215.543 193.213C214.959 192.599 214.667 191.78 214.667 190.756V190.541C214.667 189.859 214.797 189.252 215.055 188.719C215.317 188.181 215.681 187.762 216.146 187.462C216.616 187.157 217.124 187.005 217.67 187.005C218.563 187.005 219.257 187.299 219.752 187.887C220.247 188.475 220.495 189.318 220.495 190.414V190.902H215.842C215.859 191.579 216.056 192.127 216.432 192.546C216.813 192.961 217.295 193.168 217.879 193.168C218.294 193.168 218.645 193.084 218.933 192.915C219.221 192.745 219.473 192.521 219.688 192.242L220.406 192.8C219.83 193.685 218.967 194.127 217.816 194.127ZM217.67 187.97C217.196 187.97 216.798 188.143 216.477 188.49C216.155 188.833 215.956 189.315 215.88 189.938H219.32V189.849C219.286 189.252 219.126 188.791 218.838 188.465C218.55 188.135 218.161 187.97 217.67 187.97ZM225.268 194V184.758H227.877C228.681 184.758 229.392 184.936 230.01 185.291C230.628 185.646 231.104 186.152 231.438 186.808C231.777 187.464 231.948 188.217 231.952 189.068V189.658C231.952 190.53 231.783 191.294 231.444 191.95C231.11 192.606 230.63 193.109 230.003 193.46C229.381 193.812 228.656 193.992 227.826 194H225.268ZM226.487 185.761V193.003H227.769C228.708 193.003 229.438 192.711 229.959 192.127C230.484 191.543 230.746 190.712 230.746 189.633V189.093C230.746 188.044 230.499 187.229 230.003 186.649C229.513 186.065 228.814 185.769 227.909 185.761H226.487ZM236.465 194.127C235.534 194.127 234.777 193.822 234.193 193.213C233.609 192.599 233.317 191.78 233.317 190.756V190.541C233.317 189.859 233.446 189.252 233.704 188.719C233.966 188.181 234.33 187.762 234.796 187.462C235.266 187.157 235.773 187.005 236.319 187.005C237.212 187.005 237.906 187.299 238.401 187.887C238.896 188.475 239.144 189.318 239.144 190.414V190.902H234.491C234.508 191.579 234.705 192.127 235.082 192.546C235.462 192.961 235.945 193.168 236.529 193.168C236.944 193.168 237.295 193.084 237.583 192.915C237.87 192.745 238.122 192.521 238.338 192.242L239.055 192.8C238.48 193.685 237.616 194.127 236.465 194.127ZM236.319 187.97C235.845 187.97 235.448 188.143 235.126 188.49C234.804 188.833 234.605 189.315 234.529 189.938H237.97V189.849C237.936 189.252 237.775 188.791 237.487 188.465C237.2 188.135 236.81 187.97 236.319 187.97ZM246.311 190.642C246.311 191.687 246.071 192.529 245.593 193.168C245.115 193.807 244.468 194.127 243.651 194.127C242.817 194.127 242.161 193.862 241.683 193.333V196.641H240.509V187.132H241.582L241.639 187.894C242.117 187.301 242.781 187.005 243.632 187.005C244.457 187.005 245.109 187.316 245.587 187.938C246.069 188.56 246.311 189.425 246.311 190.534V190.642ZM245.136 190.509C245.136 189.734 244.971 189.123 244.641 188.674C244.311 188.226 243.858 188.001 243.283 188.001C242.572 188.001 242.039 188.317 241.683 188.947V192.229C242.034 192.855 242.572 193.168 243.295 193.168C243.858 193.168 244.305 192.946 244.635 192.502C244.969 192.053 245.136 191.389 245.136 190.509ZM252.049 194C251.981 193.865 251.926 193.623 251.884 193.276C251.338 193.843 250.686 194.127 249.929 194.127C249.252 194.127 248.695 193.937 248.259 193.556C247.828 193.171 247.612 192.684 247.612 192.096C247.612 191.381 247.883 190.826 248.424 190.433C248.97 190.035 249.736 189.836 250.722 189.836H251.865V189.296C251.865 188.886 251.742 188.56 251.497 188.319C251.251 188.073 250.889 187.951 250.411 187.951C249.992 187.951 249.641 188.056 249.357 188.268C249.074 188.48 248.932 188.736 248.932 189.036H247.751C247.751 188.693 247.872 188.363 248.113 188.046C248.359 187.724 248.689 187.47 249.104 187.284C249.522 187.098 249.982 187.005 250.481 187.005C251.272 187.005 251.892 187.204 252.341 187.602C252.789 187.995 253.022 188.539 253.039 189.233V192.394C253.039 193.025 253.119 193.526 253.28 193.898V194H252.049ZM250.1 193.105C250.468 193.105 250.817 193.01 251.147 192.819C251.478 192.629 251.717 192.381 251.865 192.077V190.667H250.944C249.506 190.667 248.786 191.089 248.786 191.931C248.786 192.299 248.909 192.587 249.154 192.794C249.4 193.001 249.715 193.105 250.1 193.105ZM258.2 188.186C258.022 188.156 257.829 188.141 257.622 188.141C256.852 188.141 256.329 188.469 256.054 189.125V194H254.88V187.132H256.022L256.042 187.925C256.427 187.312 256.972 187.005 257.679 187.005C257.908 187.005 258.081 187.035 258.2 187.094V188.186ZM261.196 185.469V187.132H262.478V188.04H261.196V192.299C261.196 192.574 261.253 192.781 261.367 192.921C261.481 193.056 261.676 193.124 261.951 193.124C262.087 193.124 262.273 193.099 262.51 193.048V194C262.201 194.085 261.9 194.127 261.608 194.127C261.084 194.127 260.688 193.968 260.421 193.651C260.155 193.333 260.021 192.883 260.021 192.299V188.04H258.771V187.132H260.021V185.469H261.196ZM264.96 187.132L264.992 187.894C265.495 187.301 266.174 187.005 267.029 187.005C267.99 187.005 268.644 187.373 268.991 188.109C269.219 187.779 269.515 187.513 269.879 187.31C270.248 187.106 270.681 187.005 271.181 187.005C272.687 187.005 273.453 187.803 273.479 189.398V194H272.304V189.468C272.304 188.977 272.192 188.611 271.968 188.37C271.743 188.124 271.367 188.001 270.838 188.001C270.402 188.001 270.04 188.133 269.752 188.395C269.465 188.653 269.298 189.002 269.251 189.442V194H268.07V189.5C268.07 188.501 267.582 188.001 266.604 188.001C265.834 188.001 265.307 188.329 265.023 188.985V194H263.849V187.132H264.96ZM278.106 194.127C277.175 194.127 276.417 193.822 275.833 193.213C275.25 192.599 274.958 191.78 274.958 190.756V190.541C274.958 189.859 275.087 189.252 275.345 188.719C275.607 188.181 275.971 187.762 276.437 187.462C276.906 187.157 277.414 187.005 277.96 187.005C278.853 187.005 279.547 187.299 280.042 187.887C280.537 188.475 280.785 189.318 280.785 190.414V190.902H276.132C276.149 191.579 276.346 192.127 276.722 192.546C277.103 192.961 277.585 193.168 278.169 193.168C278.584 193.168 278.935 193.084 279.223 192.915C279.511 192.745 279.763 192.521 279.979 192.242L280.696 192.8C280.12 193.685 279.257 194.127 278.106 194.127ZM277.96 187.97C277.486 187.97 277.088 188.143 276.767 188.49C276.445 188.833 276.246 189.315 276.17 189.938H279.61V189.849C279.576 189.252 279.416 188.791 279.128 188.465C278.84 188.135 278.451 187.97 277.96 187.97ZM283.26 187.132L283.298 187.995C283.823 187.335 284.509 187.005 285.355 187.005C286.806 187.005 287.539 187.824 287.551 189.461V194H286.377V189.455C286.373 188.96 286.258 188.594 286.034 188.357C285.814 188.12 285.469 188.001 285 188.001C284.619 188.001 284.284 188.103 283.997 188.306C283.709 188.509 283.485 188.776 283.324 189.106V194H282.149V187.132H283.26ZM290.916 185.469V187.132H292.198V188.04H290.916V192.299C290.916 192.574 290.973 192.781 291.087 192.921C291.201 193.056 291.396 193.124 291.671 193.124C291.806 193.124 291.993 193.099 292.229 193.048V194C291.921 194.085 291.62 194.127 291.328 194.127C290.803 194.127 290.408 193.968 290.141 193.651C289.875 193.333 289.741 192.883 289.741 192.299V188.04H288.491V187.132H289.741V185.469H290.916Z" fill="#333333"/>
<path d="M2.28516 189.207H3.09961C3.61133 189.199 4.01367 189.064 4.30664 188.803C4.59961 188.541 4.74609 188.188 4.74609 187.742C4.74609 186.742 4.24805 186.242 3.25195 186.242C2.7832 186.242 2.4082 186.377 2.12695 186.646C1.84961 186.912 1.71094 187.266 1.71094 187.707H0.626953C0.626953 187.031 0.873047 186.471 1.36523 186.025C1.86133 185.576 2.49023 185.352 3.25195 185.352C4.05664 185.352 4.6875 185.564 5.14453 185.99C5.60156 186.416 5.83008 187.008 5.83008 187.766C5.83008 188.137 5.70898 188.496 5.4668 188.844C5.22852 189.191 4.90234 189.451 4.48828 189.623C4.95703 189.771 5.31836 190.018 5.57227 190.361C5.83008 190.705 5.95898 191.125 5.95898 191.621C5.95898 192.387 5.70898 192.994 5.20898 193.443C4.70898 193.893 4.05859 194.117 3.25781 194.117C2.45703 194.117 1.80469 193.9 1.30078 193.467C0.800781 193.033 0.550781 192.461 0.550781 191.75H1.64062C1.64062 192.199 1.78711 192.559 2.08008 192.828C2.37305 193.098 2.76562 193.232 3.25781 193.232C3.78125 193.232 4.18164 193.096 4.45898 192.822C4.73633 192.549 4.875 192.156 4.875 191.645C4.875 191.148 4.72266 190.768 4.41797 190.502C4.11328 190.236 3.67383 190.1 3.09961 190.092H2.28516V189.207ZM7.52344 193.432C7.52344 193.244 7.57812 193.088 7.6875 192.963C7.80078 192.838 7.96875 192.775 8.19141 192.775C8.41406 192.775 8.58203 192.838 8.69531 192.963C8.8125 193.088 8.87109 193.244 8.87109 193.432C8.87109 193.611 8.8125 193.762 8.69531 193.883C8.58203 194.004 8.41406 194.064 8.19141 194.064C7.96875 194.064 7.80078 194.004 7.6875 193.883C7.57812 193.762 7.52344 193.611 7.52344 193.432ZM7.5293 188.258C7.5293 188.07 7.58398 187.914 7.69336 187.789C7.80664 187.664 7.97461 187.602 8.19727 187.602C8.41992 187.602 8.58789 187.664 8.70117 187.789C8.81836 187.914 8.87695 188.07 8.87695 188.258C8.87695 188.438 8.81836 188.588 8.70117 188.709C8.58789 188.83 8.41992 188.891 8.19727 188.891C7.97461 188.891 7.80664 188.83 7.69336 188.709C7.58398 188.588 7.5293 188.438 7.5293 188.258ZM11.9297 189.207H12.7441C13.2559 189.199 13.6582 189.064 13.9512 188.803C14.2441 188.541 14.3906 188.188 14.3906 187.742C14.3906 186.742 13.8926 186.242 12.8965 186.242C12.4277 186.242 12.0527 186.377 11.7715 186.646C11.4941 186.912 11.3555 187.266 11.3555 187.707H10.2715C10.2715 187.031 10.5176 186.471 11.0098 186.025C11.5059 185.576 12.1348 185.352 12.8965 185.352C13.7012 185.352 14.332 185.564 14.7891 185.99C15.2461 186.416 15.4746 187.008 15.4746 187.766C15.4746 188.137 15.3535 188.496 15.1113 188.844C14.873 189.191 14.5469 189.451 14.1328 189.623C14.6016 189.771 14.9629 190.018 15.2168 190.361C15.4746 190.705 15.6035 191.125 15.6035 191.621C15.6035 192.387 15.3535 192.994 14.8535 193.443C14.3535 193.893 13.7031 194.117 12.9023 194.117C12.1016 194.117 11.4492 193.9 10.9453 193.467C10.4453 193.033 10.1953 192.461 10.1953 191.75H11.2852C11.2852 192.199 11.4316 192.559 11.7246 192.828C12.0176 193.098 12.4102 193.232 12.9023 193.232C13.4258 193.232 13.8262 193.096 14.1035 192.822C14.3809 192.549 14.5195 192.156 14.5195 191.645C14.5195 191.148 14.3672 190.768 14.0625 190.502C13.7578 190.236 13.3184 190.1 12.7441 190.092H11.9297V189.207ZM22.4414 190.361C22.4414 191.631 22.2246 192.574 21.791 193.191C21.3574 193.809 20.6797 194.117 19.7578 194.117C18.8477 194.117 18.1738 193.816 17.7363 193.215C17.2988 192.609 17.0723 191.707 17.0566 190.508V189.061C17.0566 187.807 17.2734 186.875 17.707 186.266C18.1406 185.656 18.8203 185.352 19.7461 185.352C20.6641 185.352 21.3398 185.646 21.7734 186.236C22.207 186.822 22.4297 187.729 22.4414 188.955V190.361ZM21.3574 188.879C21.3574 187.961 21.2285 187.293 20.9707 186.875C20.7129 186.453 20.3047 186.242 19.7461 186.242C19.1914 186.242 18.7871 186.451 18.5332 186.869C18.2793 187.287 18.1484 187.93 18.1406 188.797V190.531C18.1406 191.453 18.2734 192.135 18.5391 192.576C18.8086 193.014 19.2148 193.232 19.7578 193.232C20.293 193.232 20.6895 193.025 20.9473 192.611C21.209 192.197 21.3457 191.545 21.3574 190.654V188.879ZM28.2129 190.66V194H27.0879V185.469H30.2344C31.168 185.469 31.8984 185.707 32.4258 186.184C32.957 186.66 33.2227 187.291 33.2227 188.076C33.2227 188.904 32.9629 189.543 32.4434 189.992C31.9277 190.438 31.1875 190.66 30.2227 190.66H28.2129ZM28.2129 189.74H30.2344C30.8359 189.74 31.2969 189.6 31.6172 189.318C31.9375 189.033 32.0977 188.623 32.0977 188.088C32.0977 187.58 31.9375 187.174 31.6172 186.869C31.2969 186.564 30.8574 186.406 30.2988 186.395H28.2129V189.74ZM36.1113 185.469L38.9004 192.43L41.6895 185.469H43.1484V194H42.0234V190.678L42.1289 187.092L39.3281 194H38.4668L35.6719 187.109L35.7832 190.678V194H34.6582V185.469H36.1113Z" fill="#AEAEAE"/>
<line x1="-1.31134e-08" y1="207.85" x2="345" y2="207.85" stroke="#AEAEAE" stroke-width="0.3"/>
<path d="M83.1758 230H81.9507V225.728H77.2915V230H76.0728V220.758H77.2915V224.731H81.9507V220.758H83.1758V230ZM89.3965 230C89.3288 229.865 89.2738 229.623 89.2314 229.276C88.6855 229.843 88.0339 230.127 87.2764 230.127C86.5993 230.127 86.0428 229.937 85.6069 229.556C85.1753 229.171 84.9595 228.684 84.9595 228.096C84.9595 227.381 85.2303 226.826 85.772 226.433C86.3179 226.035 87.0838 225.836 88.0698 225.836H89.2124V225.296C89.2124 224.886 89.0897 224.56 88.8442 224.319C88.5988 224.073 88.237 223.951 87.7588 223.951C87.3398 223.951 86.9886 224.056 86.7051 224.268C86.4215 224.48 86.2798 224.736 86.2798 225.036H85.0991C85.0991 224.693 85.2197 224.363 85.4609 224.046C85.7064 223.724 86.0365 223.47 86.4512 223.284C86.8701 223.098 87.3293 223.005 87.8286 223.005C88.62 223.005 89.2399 223.204 89.6885 223.602C90.137 223.995 90.3698 224.539 90.3867 225.233V228.394C90.3867 229.025 90.4671 229.526 90.6279 229.898V230H89.3965ZM87.4478 229.105C87.8159 229.105 88.165 229.01 88.4951 228.819C88.8252 228.629 89.0643 228.381 89.2124 228.077V226.667H88.292C86.8532 226.667 86.1338 227.089 86.1338 227.931C86.1338 228.299 86.2565 228.587 86.502 228.794C86.7474 229.001 87.0627 229.105 87.4478 229.105ZM98.0293 226.642C98.0293 227.687 97.7902 228.529 97.312 229.168C96.8338 229.807 96.1864 230.127 95.3696 230.127C94.536 230.127 93.88 229.862 93.4019 229.333V232.641H92.2275V223.132H93.3003L93.3574 223.894C93.8356 223.301 94.5 223.005 95.3506 223.005C96.1758 223.005 96.8275 223.316 97.3057 223.938C97.7881 224.56 98.0293 225.425 98.0293 226.534V226.642ZM96.855 226.509C96.855 225.734 96.6899 225.123 96.3599 224.674C96.0298 224.226 95.577 224.001 95.0015 224.001C94.2905 224.001 93.7573 224.317 93.4019 224.947V228.229C93.7531 228.855 94.2905 229.168 95.0142 229.168C95.577 229.168 96.0234 228.946 96.3535 228.502C96.6878 228.053 96.855 227.389 96.855 226.509ZM105.329 226.642C105.329 227.687 105.09 228.529 104.612 229.168C104.134 229.807 103.486 230.127 102.669 230.127C101.836 230.127 101.18 229.862 100.702 229.333V232.641H99.5273V223.132H100.6L100.657 223.894C101.135 223.301 101.8 223.005 102.65 223.005C103.476 223.005 104.127 223.316 104.605 223.938C105.088 224.56 105.329 225.425 105.329 226.534V226.642ZM104.155 226.509C104.155 225.734 103.99 225.123 103.66 224.674C103.33 224.226 102.877 224.001 102.301 224.001C101.59 224.001 101.057 224.317 100.702 224.947V228.229C101.053 228.855 101.59 229.168 102.314 229.168C102.877 229.168 103.323 228.946 103.653 228.502C103.988 228.053 104.155 227.389 104.155 226.509ZM108.998 228.28L110.598 223.132H111.854L109.093 231.06C108.666 232.203 107.987 232.774 107.056 232.774L106.833 232.755L106.396 232.672V231.72L106.713 231.746C107.111 231.746 107.42 231.665 107.64 231.504C107.864 231.344 108.048 231.049 108.192 230.622L108.452 229.924L106.002 223.132H107.284L108.998 228.28ZM123.42 230H122.195V225.728H117.536V230H116.317V220.758H117.536V224.731H122.195V220.758H123.42V230ZM125.089 226.502C125.089 225.83 125.221 225.224 125.483 224.687C125.75 224.15 126.118 223.735 126.587 223.443C127.061 223.151 127.601 223.005 128.206 223.005C129.141 223.005 129.897 223.329 130.472 223.976C131.052 224.624 131.342 225.485 131.342 226.56V226.642C131.342 227.311 131.213 227.912 130.955 228.445C130.701 228.974 130.335 229.386 129.856 229.683C129.382 229.979 128.837 230.127 128.219 230.127C127.288 230.127 126.532 229.803 125.953 229.156C125.377 228.508 125.089 227.651 125.089 226.585V226.502ZM126.27 226.642C126.27 227.404 126.446 228.015 126.797 228.477C127.152 228.938 127.626 229.168 128.219 229.168C128.815 229.168 129.289 228.936 129.641 228.47C129.992 228 130.167 227.345 130.167 226.502C130.167 225.749 129.988 225.14 129.628 224.674C129.272 224.205 128.799 223.97 128.206 223.97C127.626 223.97 127.159 224.2 126.803 224.662C126.448 225.123 126.27 225.783 126.27 226.642ZM137.055 229.321C136.598 229.858 135.927 230.127 135.042 230.127C134.31 230.127 133.752 229.915 133.367 229.492C132.986 229.065 132.793 228.434 132.789 227.601V223.132H133.963V227.569C133.963 228.61 134.387 229.13 135.233 229.13C136.13 229.13 136.727 228.796 137.023 228.127V223.132H138.197V230H137.08L137.055 229.321ZM143.307 224.186C143.129 224.156 142.937 224.141 142.729 224.141C141.959 224.141 141.437 224.469 141.162 225.125V230H139.987V223.132H141.13L141.149 223.925C141.534 223.312 142.08 223.005 142.787 223.005C143.015 223.005 143.189 223.035 143.307 223.094V224.186ZM153.698 228.381L155.019 223.132H156.193L154.193 230H153.241L151.572 224.795L149.947 230H148.995L147.001 223.132H148.169L149.521 228.273L151.121 223.132H152.067L153.698 228.381ZM158.668 230H157.494V223.132H158.668V230ZM157.399 221.31C157.399 221.12 157.456 220.959 157.57 220.828C157.689 220.696 157.862 220.631 158.091 220.631C158.319 220.631 158.493 220.696 158.611 220.828C158.73 220.959 158.789 221.12 158.789 221.31C158.789 221.5 158.73 221.659 158.611 221.786C158.493 221.913 158.319 221.977 158.091 221.977C157.862 221.977 157.689 221.913 157.57 221.786C157.456 221.659 157.399 221.5 157.399 221.31ZM162.147 221.469V223.132H163.429V224.04H162.147V228.299C162.147 228.574 162.204 228.781 162.318 228.921C162.433 229.056 162.627 229.124 162.902 229.124C163.038 229.124 163.224 229.099 163.461 229.048V230C163.152 230.085 162.852 230.127 162.56 230.127C162.035 230.127 161.639 229.968 161.373 229.651C161.106 229.333 160.973 228.883 160.973 228.299V224.04H159.722V223.132H160.973V221.469H162.147ZM165.981 223.963C166.501 223.324 167.179 223.005 168.012 223.005C169.464 223.005 170.196 223.824 170.208 225.461V230H169.034V225.455C169.03 224.96 168.916 224.594 168.691 224.357C168.471 224.12 168.126 224.001 167.657 224.001C167.276 224.001 166.942 224.103 166.654 224.306C166.366 224.509 166.142 224.776 165.981 225.106V230H164.807V220.25H165.981V223.963ZM181.507 221.761H178.537V230H177.324V221.761H174.36V220.758H181.507V221.761ZM184.91 230.127C183.979 230.127 183.221 229.822 182.637 229.213C182.053 228.599 181.761 227.78 181.761 226.756V226.541C181.761 225.859 181.89 225.252 182.148 224.719C182.411 224.181 182.775 223.762 183.24 223.462C183.71 223.157 184.218 223.005 184.764 223.005C185.657 223.005 186.351 223.299 186.846 223.887C187.341 224.475 187.588 225.318 187.588 226.414V226.902H182.936C182.952 227.579 183.149 228.127 183.526 228.546C183.907 228.961 184.389 229.168 184.973 229.168C185.388 229.168 185.739 229.084 186.027 228.915C186.315 228.745 186.566 228.521 186.782 228.242L187.5 228.8C186.924 229.685 186.061 230.127 184.91 230.127ZM184.764 223.97C184.29 223.97 183.892 224.143 183.57 224.49C183.249 224.833 183.05 225.315 182.974 225.938H186.414V225.849C186.38 225.252 186.219 224.791 185.932 224.465C185.644 224.135 185.255 223.97 184.764 223.97ZM193.193 230C193.126 229.865 193.071 229.623 193.028 229.276C192.482 229.843 191.831 230.127 191.073 230.127C190.396 230.127 189.84 229.937 189.404 229.556C188.972 229.171 188.756 228.684 188.756 228.096C188.756 227.381 189.027 226.826 189.569 226.433C190.115 226.035 190.881 225.836 191.867 225.836H193.009V225.296C193.009 224.886 192.887 224.56 192.641 224.319C192.396 224.073 192.034 223.951 191.556 223.951C191.137 223.951 190.785 224.056 190.502 224.268C190.218 224.48 190.077 224.736 190.077 225.036H188.896C188.896 224.693 189.017 224.363 189.258 224.046C189.503 223.724 189.833 223.47 190.248 223.284C190.667 223.098 191.126 223.005 191.625 223.005C192.417 223.005 193.037 223.204 193.485 223.602C193.934 223.995 194.167 224.539 194.184 225.233V228.394C194.184 229.025 194.264 229.526 194.425 229.898V230H193.193ZM191.245 229.105C191.613 229.105 191.962 229.01 192.292 228.819C192.622 228.629 192.861 228.381 193.009 228.077V226.667H192.089C190.65 226.667 189.931 227.089 189.931 227.931C189.931 228.299 190.053 228.587 190.299 228.794C190.544 229.001 190.86 229.105 191.245 229.105ZM197.129 223.132L197.161 223.894C197.664 223.301 198.343 223.005 199.198 223.005C200.159 223.005 200.813 223.373 201.16 224.109C201.388 223.779 201.684 223.513 202.048 223.31C202.417 223.106 202.85 223.005 203.35 223.005C204.856 223.005 205.622 223.803 205.647 225.398V230H204.473V225.468C204.473 224.977 204.361 224.611 204.137 224.37C203.912 224.124 203.536 224.001 203.007 224.001C202.571 224.001 202.209 224.133 201.921 224.395C201.634 224.653 201.466 225.002 201.42 225.442V230H200.239V225.5C200.239 224.501 199.75 224.001 198.773 224.001C198.003 224.001 197.476 224.329 197.192 224.985V230H196.018V223.132H197.129ZM213.557 225.88C212.511 225.58 211.75 225.212 211.271 224.776C210.798 224.336 210.561 223.794 210.561 223.151C210.561 222.423 210.85 221.822 211.43 221.348C212.014 220.87 212.772 220.631 213.703 220.631C214.337 220.631 214.902 220.754 215.397 220.999C215.897 221.244 216.282 221.583 216.553 222.015C216.828 222.446 216.965 222.918 216.965 223.43H215.74C215.74 222.872 215.562 222.434 215.207 222.116C214.852 221.795 214.35 221.634 213.703 221.634C213.102 221.634 212.632 221.767 212.293 222.034C211.959 222.296 211.792 222.662 211.792 223.132C211.792 223.508 211.951 223.828 212.268 224.09C212.59 224.348 213.133 224.585 213.899 224.801C214.67 225.017 215.271 225.256 215.702 225.519C216.138 225.777 216.46 226.079 216.667 226.426C216.879 226.773 216.984 227.182 216.984 227.651C216.984 228.4 216.692 229.001 216.108 229.454C215.524 229.903 214.744 230.127 213.766 230.127C213.131 230.127 212.539 230.006 211.989 229.765C211.439 229.52 211.013 229.185 210.713 228.762C210.417 228.339 210.269 227.859 210.269 227.321H211.494C211.494 227.88 211.699 228.322 212.109 228.648C212.524 228.97 213.076 229.13 213.766 229.13C214.409 229.13 214.902 228.999 215.245 228.737C215.588 228.474 215.759 228.117 215.759 227.664C215.759 227.211 215.601 226.862 215.283 226.617C214.966 226.367 214.39 226.122 213.557 225.88ZM219.961 221.469V223.132H221.244V224.04H219.961V228.299C219.961 228.574 220.019 228.781 220.133 228.921C220.247 229.056 220.442 229.124 220.717 229.124C220.852 229.124 221.038 229.099 221.275 229.048V230C220.966 230.085 220.666 230.127 220.374 230.127C219.849 230.127 219.454 229.968 219.187 229.651C218.92 229.333 218.787 228.883 218.787 228.299V224.04H217.537V223.132H218.787V221.469H219.961ZM226.861 230C226.794 229.865 226.739 229.623 226.696 229.276C226.15 229.843 225.499 230.127 224.741 230.127C224.064 230.127 223.508 229.937 223.072 229.556C222.64 229.171 222.424 228.684 222.424 228.096C222.424 227.381 222.695 226.826 223.237 226.433C223.783 226.035 224.549 225.836 225.535 225.836H226.677V225.296C226.677 224.886 226.555 224.56 226.309 224.319C226.064 224.073 225.702 223.951 225.224 223.951C224.805 223.951 224.453 224.056 224.17 224.268C223.886 224.48 223.745 224.736 223.745 225.036H222.564C222.564 224.693 222.685 224.363 222.926 224.046C223.171 223.724 223.501 223.47 223.916 223.284C224.335 223.098 224.794 223.005 225.293 223.005C226.085 223.005 226.705 223.204 227.153 223.602C227.602 223.995 227.835 224.539 227.852 225.233V228.394C227.852 229.025 227.932 229.526 228.093 229.898V230H226.861ZM224.913 229.105C225.281 229.105 225.63 229.01 225.96 228.819C226.29 228.629 226.529 228.381 226.677 228.077V226.667H225.757C224.318 226.667 223.599 227.089 223.599 227.931C223.599 228.299 223.721 228.587 223.967 228.794C224.212 229.001 224.528 229.105 224.913 229.105ZM230.27 230V224.04H229.185V223.132H230.27V222.427C230.27 221.691 230.467 221.122 230.86 220.72C231.254 220.318 231.81 220.117 232.53 220.117C232.801 220.117 233.069 220.153 233.336 220.225L233.272 221.177C233.074 221.139 232.862 221.12 232.638 221.12C232.257 221.12 231.963 221.232 231.755 221.456C231.548 221.676 231.444 221.993 231.444 222.408V223.132H232.911V224.04H231.444V230H230.27ZM234.79 230V224.04H233.704V223.132H234.79V222.427C234.79 221.691 234.986 221.122 235.38 220.72C235.773 220.318 236.33 220.117 237.049 220.117C237.32 220.117 237.589 220.153 237.855 220.225L237.792 221.177C237.593 221.139 237.382 221.12 237.157 221.12C236.776 221.12 236.482 221.232 236.275 221.456C236.068 221.676 235.964 221.993 235.964 222.408V223.132H237.43V224.04H235.964V230H234.79Z" fill="#333333"/>
<path d="M1.20703 225.723L1.64062 221.469H6.01172V222.471H2.56055L2.30273 224.797C2.7207 224.551 3.19531 224.428 3.72656 224.428C4.50391 224.428 5.12109 224.686 5.57812 225.201C6.03516 225.713 6.26367 226.406 6.26367 227.281C6.26367 228.16 6.02539 228.854 5.54883 229.361C5.07617 229.865 4.41406 230.117 3.5625 230.117C2.80859 230.117 2.19336 229.908 1.7168 229.49C1.24023 229.072 0.96875 228.494 0.902344 227.756H1.92773C1.99414 228.244 2.16797 228.613 2.44922 228.863C2.73047 229.109 3.10156 229.232 3.5625 229.232C4.06641 229.232 4.46094 229.061 4.74609 228.717C5.03516 228.373 5.17969 227.898 5.17969 227.293C5.17969 226.723 5.02344 226.266 4.71094 225.922C4.40234 225.574 3.99023 225.4 3.47461 225.4C3.00195 225.4 2.63086 225.504 2.36133 225.711L2.07422 225.945L1.20703 225.723ZM11.8301 226.66V230H10.7051V221.469H13.8516C14.7852 221.469 15.5156 221.707 16.043 222.184C16.5742 222.66 16.8398 223.291 16.8398 224.076C16.8398 224.904 16.5801 225.543 16.0605 225.992C15.5449 226.438 14.8047 226.66 13.8398 226.66H11.8301ZM11.8301 225.74H13.8516C14.4531 225.74 14.9141 225.6 15.2344 225.318C15.5547 225.033 15.7148 224.623 15.7148 224.088C15.7148 223.58 15.5547 223.174 15.2344 222.869C14.9141 222.564 14.4746 222.406 13.916 222.395H11.8301V225.74ZM19.7285 221.469L22.5176 228.43L25.3066 221.469H26.7656V230H25.6406V226.678L25.7461 223.092L22.9453 230H22.084L19.2891 223.109L19.4004 226.678V230H18.2754V221.469H19.7285Z" fill="#AEAEAE"/>
<line x1="-1.31134e-08" y1="243.85" x2="345" y2="243.85" stroke="#AEAEAE" stroke-width="0.3"/>
</svg>
